<svg width="465" height="610" viewBox="0 0 465 610" fill="none" xmlns="http://www.w3.org/2000/svg">
<g clip-path="url(#clip0_120_1154)">
<path d="M465 331.002L465 0.00183105L-3.05176e-05 0.00183105L-3.05176e-05 331.002L465 331.002Z" fill="#D49F2D"/>
<path d="M453.31 11.6899H11.6885V319.31H453.31V11.6899Z" fill="#176E4D"/>
<path d="M58.8423 129.068C61.6243 127.175 203.54 47.1805 264.113 48.3027C324.685 49.4249 219.239 134.68 276.456 125.702C333.674 116.724 426.765 78.5913 417.788 121.213C408.811 163.846 262.991 273.778 162.033 292.844C61.0749 311.91 186.708 203.101 158.666 195.245C130.636 187.401 -36.5049 194.134 58.8423 129.068Z" fill="#1B805A"/>
<path d="M41.9126 67.6003C42.4798 67.8291 43.2041 68.2607 44.0854 68.8953C45.1181 69.6276 45.8226 70.0957 46.1991 70.2996C46.5269 70.4772 46.7312 70.7018 46.8119 70.9732C46.9176 71.329 46.8619 71.7072 46.6448 72.1079C46.4343 72.4965 46.1418 72.7464 45.7674 72.8577C45.5053 72.9356 45.2368 72.9237 44.9621 72.822C44.6846 72.7109 43.7722 72.1263 42.225 71.0681C41.1129 70.3085 40.1117 69.8878 39.2214 69.8061C38.5556 69.7594 38.1545 69.5068 38.0182 69.0481C37.8624 68.5239 38.1308 67.9704 38.8236 67.3875C39.6383 66.6666 40.4847 65.5898 41.363 64.1572L43.3734 60.9465C43.6927 60.4441 44.0349 60.1386 44.4 60.0301C44.6996 59.9411 44.9796 59.975 45.2402 60.1319C45.5008 60.2888 45.6756 60.517 45.7646 60.8165C45.8397 61.0693 45.8423 61.3181 45.7725 61.563C45.6999 61.7985 45.2841 62.5079 44.5253 63.6911C43.7758 64.8714 42.9049 66.1745 41.9126 67.6003ZM54.0901 65.8455C54.5781 69.6125 54.7267 71.8606 54.5358 72.5898C54.3516 73.3067 53.9833 73.7473 53.431 73.9114C53.0753 74.0171 52.741 73.9892 52.4281 73.8275C52.1245 73.663 51.9254 73.4216 51.8308 73.1034C51.764 72.8787 51.7629 72.5836 51.8275 72.218C51.874 71.9291 51.8361 71.2017 51.7138 70.0359L50.0368 57.0406L49.8681 54.9819C49.7996 54.34 49.6805 53.7336 49.5108 53.1626C49.2187 52.1797 49.1485 51.4466 49.3003 50.9634C49.4522 50.4802 49.8136 50.1538 50.3846 49.9841C51.1709 49.7504 51.6879 50.0501 51.9355 50.8832C52.3278 52.2031 52.6264 54.1162 52.8314 56.6226C52.9542 57.9615 53.067 59.0435 53.1696 59.8688L53.3543 61.1587C54.5891 58.5606 56.1941 56.968 58.1693 56.381C59.1428 56.0916 59.9884 56.0746 60.7062 56.33C61.4211 56.5759 61.9733 57.3542 62.3628 58.6647C62.5214 59.1983 62.6643 59.8333 62.7915 60.5698L63.2796 63.3435L63.9693 66.3324C64.0184 66.5318 64.162 67.0494 64.4003 67.8853C64.6479 68.7184 64.8047 69.2118 64.8707 69.3654C64.9461 69.5161 64.9731 69.7271 64.9519 69.9983C64.9306 70.2696 64.8101 70.5499 64.5905 70.8393C64.3709 71.1287 64.0879 71.3248 63.7416 71.4278C63.2641 71.5697 62.8878 71.5032 62.6126 71.2285C62.3495 70.9603 62.0288 70.1896 61.6504 68.9165C60.9604 66.595 60.5638 64.7976 60.4604 63.5243C60.3368 62.1143 60.1902 61.1239 60.0205 60.5529C59.72 59.5419 59.2374 59.1351 58.5728 59.3327C57.6929 59.5942 56.916 60.1511 56.2422 61.0034C55.575 61.8435 54.8577 63.4575 54.0901 65.8455ZM71.8917 55.145C71.9129 55.6277 71.9236 56.1951 71.9238 56.847C71.9081 59.6737 72.1034 61.7704 72.5096 63.1371C72.9881 64.7472 73.6018 65.4409 74.3507 65.2183C75.0902 64.9986 75.5696 64.6065 75.789 64.0421C76.0866 63.2608 76.4413 62.809 76.8532 62.6866C77.1621 62.5948 77.4918 62.6242 77.8422 62.7747C78.2019 62.9225 78.4374 63.1836 78.5487 63.5581C78.7935 64.3818 78.4841 65.243 77.6203 66.1415C76.763 67.028 75.8243 67.6228 74.8039 67.926C72.3888 68.6438 70.7347 67.5003 69.8417 64.4954C69.352 62.8479 69.1236 60.7254 69.1565 58.1279C69.1666 57.4423 69.1674 56.7595 69.1589 56.0795C67.097 56.5802 65.8815 56.7581 65.5124 56.6131C65.1498 56.456 64.8935 56.1246 64.7432 55.6191C64.6208 55.2073 64.6597 54.8239 64.8598 54.4689C65.0572 54.1046 65.3992 53.8502 65.886 53.7055L68.8635 53.0803C68.8474 52.8203 68.806 52.5269 68.7395 52.2003C68.6636 51.8765 68.5907 51.511 68.5206 51.1039L68.2419 49.2919C68.184 48.8914 68.2612 48.5169 68.4735 48.1686C68.6951 47.8175 69.0072 47.5821 69.4097 47.4624C70.196 47.2287 70.777 47.7438 71.1526 49.0075C71.2611 49.3726 71.3454 49.862 71.4056 50.4757L71.6297 52.2582C72.8368 51.7263 73.4824 51.4478 73.5667 51.4228C74.5402 51.1334 75.2387 51.0328 75.6622 51.1209C76.0829 51.1996 76.3698 51.4964 76.5228 52.0112C76.6592 52.4699 76.6099 52.8869 76.3751 53.2624C76.1497 53.635 75.817 53.8867 75.377 54.0175L73.9702 54.3744C73.2775 54.5803 72.5846 54.8372 71.8917 55.145ZM90.8724 51.8572C90.9925 52.8097 91.1483 53.7109 91.3397 54.5607L92.2616 58.3822C92.7261 60.3225 92.9873 61.5438 93.0449 62.0463C93.1053 62.5581 93.0247 62.9895 92.8031 63.3407C92.5814 63.6918 92.2693 63.9272 91.8668 64.0468C91.0898 64.2777 90.5901 64.0188 90.3675 63.2699C90.3564 63.2324 90.2822 62.8113 90.1449 62.0066C90.0141 61.1896 89.7109 59.7923 89.2352 57.8147C88.7107 55.5357 88.3671 53.8141 88.2046 52.6501C88.1431 52.1692 88.0609 51.7555 87.958 51.4092C87.83 50.9786 87.6654 50.6302 87.464 50.364C86.8267 50.8591 86.229 51.5563 85.6711 52.4556L84.2463 54.9115L83.713 56.048C83.7616 56.4513 83.8145 57.3321 83.8718 58.6904C83.9711 60.4642 84.132 61.7255 84.3546 62.4744C84.541 63.1015 84.6404 63.5559 84.6527 63.8375C84.6745 64.1163 84.5717 64.4219 84.3445 64.7543C84.1173 65.0867 83.8024 65.3128 83.3999 65.4324C82.6042 65.6689 82.0117 65.1318 81.6222 63.8213C81.3912 63.0443 81.2135 61.5894 81.089 59.4564C81.02 57.8876 80.9533 56.909 80.8888 56.5207C80.8244 56.1323 80.6783 55.4524 80.4507 54.4809C79.976 52.0954 79.8253 50.5254 79.9984 49.771C80.1687 49.0072 80.5019 48.5516 80.9981 48.4042C81.3351 48.304 81.6656 48.3535 81.9897 48.5526C82.3231 48.749 82.5413 49.0203 82.6442 49.3667C82.6971 49.5445 82.7322 50.0741 82.7496 50.9552C82.7473 51.1189 82.7554 51.249 82.7738 51.3454L83.0238 52.9062C83.3533 51.7182 83.9399 50.5556 84.7837 49.4185C85.6276 48.2814 86.3771 47.6154 87.0324 47.4207C88.5021 46.9839 89.6083 47.4497 90.3513 48.8182C91.1994 47.0787 92.5315 45.9391 94.3476 45.3994C96.2478 44.8346 97.5221 45.6428 98.1703 47.8239C98.6961 49.5931 99.2887 51.7754 99.9481 54.3709C100.778 57.6086 101.19 59.3045 101.185 59.4588C101.178 59.7769 101.056 60.088 100.821 60.3924C100.597 60.7033 100.308 60.9116 99.952 61.0173C99.1845 61.2454 98.6782 60.9476 98.4334 60.1239C97.9911 58.6355 97.6314 57.1683 97.3545 55.7225L96.2491 51.2831C96.1047 50.6944 95.8308 50.0473 95.4276 49.342C95.0216 48.6272 94.6361 48.3241 94.271 48.4326C93.9715 48.5216 93.4109 48.9837 92.5894 49.8187C91.7679 50.6538 91.1955 51.3333 90.8724 51.8572ZM106.263 45.8467L107.279 55.5389C107.362 56.4006 107.381 56.9805 107.338 57.2788C107.3 57.565 107.182 57.8191 106.983 58.0412C106.797 58.2699 106.53 58.4357 106.184 58.5386C105.398 58.7723 104.897 58.5288 104.683 57.808C104.619 57.5927 104.515 56.7272 104.37 55.2115L103.497 46.6688L102.262 36.1398C102.168 35.4445 102.238 34.9602 102.472 34.6867C102.716 34.4105 103.025 34.2167 103.4 34.1054C104.205 33.8662 104.71 34.0929 104.916 34.7856C105.033 35.1788 105.382 38.0344 105.965 43.3526C106.056 44.2424 106.155 45.0738 106.263 45.8467ZM115.88 45.1431C114.902 44.802 113.68 44.1871 112.214 43.2985C110.754 42.3977 109.942 41.6712 109.778 41.1189C109.689 40.8194 109.755 40.4739 109.975 40.0825C110.201 39.679 110.506 39.4203 110.89 39.3062C111.264 39.1949 111.604 39.257 111.908 39.4926C114.419 41.3951 116.591 42.5479 118.422 42.951C118.922 43.0571 119.228 43.2973 119.339 43.6718C119.42 43.9432 119.378 44.2663 119.215 44.641C119.048 45.0063 118.35 45.9983 117.119 47.6171C115.898 49.2331 114.802 50.5674 113.831 51.6201C112.861 52.6727 112.263 53.2324 112.038 53.2991C111.748 53.3854 111.463 53.3529 111.184 53.2015C110.905 53.0502 110.719 52.8201 110.627 52.5112C110.488 52.0432 110.612 51.5837 110.997 51.1329L115.88 45.1431Z" fill="white"/>
<path d="M77.1493 155.771L78.6499 154.393C78.9303 154.136 79.1266 153.991 79.2389 153.958C79.5385 153.869 79.8199 153.908 80.0833 154.074C80.356 154.237 80.541 154.483 80.6384 154.811C80.8638 155.569 80.3175 156.49 78.9996 157.575C77.6882 158.647 76.6253 159.304 75.8109 159.546C73.9855 160.089 72.3937 160.012 71.0355 159.315C69.6772 158.618 68.7713 157.507 68.3179 155.981C67.6696 153.8 67.9007 151.236 69.0111 148.287C70.1214 145.339 71.5846 143.595 73.4007 143.055C74.421 142.752 75.5511 142.681 76.791 142.842C78.0282 142.994 78.7483 143.412 78.9514 144.095C79.0626 144.47 79.0186 144.87 78.8192 145.296C78.6264 145.71 78.3428 145.972 77.9683 146.084C77.6032 146.192 77.1466 146.078 76.5984 145.742C76.0595 145.403 75.1161 145.434 73.7682 145.834C72.7853 146.126 71.9351 147.362 71.2177 149.542C70.5096 151.718 70.3476 153.453 70.7315 154.744C71.0042 155.662 71.5618 156.321 72.4045 156.723C73.2538 157.112 74.2588 157.134 75.4195 156.789C75.9905 156.62 76.5671 156.28 77.1493 155.771ZM90.5029 140.234C90.1778 140.443 89.752 140.707 89.2255 141.026C87.7022 141.968 86.6722 142.753 86.1355 143.381C85.5961 144 85.3672 144.618 85.4489 145.236C85.7079 145.25 85.9848 145.239 86.2796 145.203C88.5962 144.942 90.3643 145.064 91.5836 145.567C92.8096 146.059 93.6201 146.969 94.0152 148.298C94.5159 149.983 94.2722 151.477 93.2839 152.779C92.2956 154.081 90.7577 155.043 88.6702 155.663C87.3129 156.067 86.0264 156.194 84.8108 156.046C83.6045 155.895 82.8901 155.445 82.6675 154.696C82.5368 154.256 82.5992 153.815 82.8547 153.372C83.1197 152.927 83.4534 152.644 83.8559 152.525C84.1367 152.441 84.5391 152.561 85.063 152.884C85.3208 153.032 85.8076 153.076 86.5233 153.016C87.239 152.956 87.8215 152.859 88.2709 152.725C90.7234 151.997 91.755 150.977 91.3655 149.666C91.0483 148.599 90.0623 148.092 88.4075 148.146L86.9074 148.241C85.3469 148.338 84.3174 148.216 83.8187 147.875C83.3173 147.525 82.9832 147.069 82.8162 146.507C82.5631 145.655 82.541 144.775 82.7501 143.868C82.9591 142.96 83.3919 142.154 84.0485 141.449C84.7144 140.742 85.839 139.898 87.4223 138.918C88.6646 138.162 89.5084 137.59 89.9537 137.203C90.2753 136.914 90.6794 136.697 91.1662 136.553C91.9525 136.319 92.4584 136.581 92.6837 137.34L92.9181 138.385L93.23 139.332C93.5019 140.178 93.497 140.796 93.2154 141.185C92.9432 141.572 92.6151 141.822 92.2313 141.936C91.7446 142.081 91.3967 142.042 91.1878 141.818C90.976 141.586 90.7477 141.058 90.5029 140.234ZM104.516 136.069C104.191 136.278 103.765 136.542 103.239 136.861C101.715 137.803 100.685 138.588 100.149 139.216C99.6094 139.835 99.3805 140.453 99.4622 141.071C99.7212 141.086 99.9981 141.075 100.293 141.038C102.61 140.777 104.378 140.899 105.597 141.402C106.823 141.894 107.633 142.804 108.028 144.133C108.529 145.818 108.286 147.312 107.297 148.614C106.309 149.917 104.771 150.878 102.684 151.498C101.326 151.902 100.04 152.029 98.8241 151.881C97.6179 151.73 96.9034 151.28 96.6809 150.532C96.5501 150.092 96.6125 149.65 96.8681 149.208C97.133 148.762 97.4667 148.48 97.8692 148.36C98.1501 148.276 98.5524 148.396 99.0764 148.719C99.3341 148.867 99.8209 148.911 100.537 148.851C101.252 148.791 101.835 148.694 102.284 148.561C104.737 147.832 105.768 146.812 105.379 145.501C105.062 144.434 104.076 143.928 102.421 143.981L100.921 144.076C99.3602 144.173 98.3307 144.051 97.8321 143.71C97.3307 143.36 96.9965 142.904 96.8296 142.342C96.5764 141.49 96.5543 140.611 96.7634 139.703C96.9724 138.795 97.4052 137.989 98.0618 137.285C98.7277 136.577 99.8524 135.734 101.436 134.754C102.678 133.997 103.522 133.426 103.967 133.039C104.289 132.749 104.693 132.533 105.18 132.388C105.966 132.154 106.472 132.416 106.697 133.175L106.931 134.221L107.243 135.167C107.515 136.013 107.51 136.631 107.229 137.02C106.956 137.407 106.628 137.657 106.245 137.771C105.758 137.916 105.41 137.877 105.201 137.654C104.989 137.421 104.761 136.893 104.516 136.069Z" fill="white"/>
<path d="M234.089 47.8631C233.945 47.3763 234.012 46.8826 234.291 46.382C234.579 45.8785 234.972 45.5531 235.468 45.4056C235.889 45.2804 236.271 45.3146 236.614 45.5082C236.966 45.699 237.196 45.9769 237.305 46.342C237.447 46.8194 237.374 47.3098 237.085 47.8132C236.794 48.3073 236.4 48.6281 235.904 48.7755C235.492 48.8979 235.112 48.8684 234.762 48.687C234.422 48.5028 234.198 48.2282 234.089 47.8631ZM237.086 62.1624L235.517 54.2086C235.44 53.8137 235.505 53.3616 235.71 52.8523C235.915 52.3431 236.233 52.0245 236.663 51.8965C237.01 51.7936 237.36 51.822 237.713 51.982C238.066 52.1419 238.267 52.337 238.315 52.5672L239.884 60.9335L241.45 69.8512C241.66 71.0725 241.447 72.4142 240.812 73.8764C240.18 75.348 239.227 76.273 237.954 76.6514C236.625 77.0464 235.412 76.7192 234.315 75.6697C233.21 74.623 232.582 73.8469 232.432 73.3414C232.315 72.9482 232.381 72.5364 232.63 72.1058C232.879 71.6752 233.223 71.3946 233.663 71.2638C234.178 71.1108 234.919 71.6851 235.887 72.9869C236.369 73.6485 236.933 73.8833 237.578 73.6913C237.981 73.5717 238.304 73.2007 238.547 72.5784C238.792 71.9654 238.797 70.9861 238.56 69.6404C238.323 68.2947 237.832 65.8021 237.086 62.1624ZM255.76 61.4415C254.027 63.0159 252.73 63.9312 251.869 64.1871C248.368 65.2276 246.123 64.0816 245.132 60.7492C244.211 57.6507 244.444 54.8512 245.83 52.3508C247.225 49.8475 249.093 48.2481 251.434 47.5526C252.342 47.2827 253.347 47.2385 254.45 47.42C255.56 47.5894 256.207 47.983 256.391 48.6008C256.505 48.9846 256.467 49.3217 256.279 49.6121C256.2 50.0328 256.248 51.1699 256.421 53.0233C256.602 54.8646 256.806 56.1691 257.034 56.9367C257.315 57.8821 257.945 59.111 258.925 60.6232L259.048 60.8312C259.1 61.7629 258.71 62.3526 257.877 62.6002C257.737 62.642 257.418 62.528 256.92 62.2582C256.425 61.9979 256.038 61.7256 255.76 61.4415ZM253.538 50.2126C252.846 50.0415 252.326 50.0075 251.98 50.1104C250.416 50.575 249.166 51.7158 248.229 53.5327C247.298 55.3375 247.145 57.2883 247.768 59.3851C248.38 61.4445 249.575 62.2099 251.354 61.6813C252.749 61.2668 253.906 60.3624 254.826 58.9683C253.81 55.0015 253.381 52.083 253.538 50.2126ZM268.257 57.7273C268.372 58.6303 268.014 59.2055 267.181 59.4532C266.516 59.6507 265.966 59.3761 265.53 58.6295L262.592 53.2679L259.178 47.2834C259.093 47.1354 259.012 46.9304 258.934 46.6683C258.859 46.4155 258.933 46.0673 259.158 45.6236C259.392 45.177 259.743 44.8842 260.211 44.7451C260.764 44.581 261.206 44.7655 261.537 45.2985L266.458 54.5027C267.014 52.5342 267.596 50.0027 268.205 46.9081C268.611 44.6072 268.925 43.2302 269.147 42.7771C269.375 42.3119 269.682 42.0222 270.065 41.9081C270.43 41.7996 270.766 41.8323 271.072 42.0061C271.379 42.18 271.579 42.426 271.674 42.7443C271.782 43.1094 271.301 45.499 270.229 49.9131L268.257 57.7273ZM284.461 52.9115C282.728 54.486 281.431 55.4012 280.57 55.6571C277.069 56.6976 274.823 55.5517 273.833 52.2192C272.912 49.1207 273.145 46.3212 274.531 43.8208C275.926 41.3175 277.794 39.7181 280.134 39.0226C281.042 38.7527 282.048 38.7086 283.151 38.89C284.261 39.0594 284.908 39.453 285.091 40.0708C285.205 40.4546 285.168 40.7917 284.979 41.0821C284.901 41.5028 284.948 42.6399 285.122 44.4934C285.303 46.3346 285.507 47.6391 285.735 48.4067C286.016 49.3521 286.646 50.581 287.625 52.0932L287.748 52.3012C287.801 53.2329 287.411 53.8226 286.578 54.0702C286.437 54.112 286.118 53.998 285.62 53.7282C285.125 53.4679 284.739 53.1956 284.461 52.9115ZM282.239 41.6826C281.546 41.5115 281.027 41.4775 280.68 41.5804C279.117 42.045 277.867 43.1858 276.93 45.0027C275.999 46.8075 275.845 48.7583 276.468 50.8551C277.081 52.9145 278.276 53.6799 280.054 53.1513C281.449 52.7368 282.607 51.8324 283.527 50.4383C282.511 46.4715 282.082 43.553 282.239 41.6826Z" fill="white"/>
<path d="M379.737 60.5516C380.927 61.5733 381.649 62.5101 381.902 63.3619C382.027 63.7831 382.074 64.3702 382.043 65.1231C382.034 66.0837 382.129 66.901 382.329 67.575C382.566 68.3707 382.931 69.1382 383.426 69.8775C383.924 70.6261 384.425 70.9253 384.931 70.7751C385.698 70.5469 386.246 70.4352 386.573 70.4397C386.9 70.4443 387.129 70.6666 387.26 71.1066C387.38 71.5091 387.372 71.929 387.237 72.3665C387.102 72.8039 386.464 73.1923 385.322 73.5317C384.039 73.9129 382.903 73.6036 381.913 72.604C380.926 71.6137 380.219 70.3977 379.79 68.9561C379.545 68.1324 379.421 67.2013 379.418 66.1631C379.409 65.31 379.372 64.7711 379.305 64.5464C379.124 63.938 378.614 63.4578 377.776 63.1058C376.874 62.7424 376.363 62.3595 376.243 61.9569C376.112 61.517 376.361 60.8114 376.989 59.8402C377.615 58.8597 378.194 58.2036 378.727 57.872L377.778 51.6441C377.452 49.5199 377.68 47.8018 378.462 46.4896C379.243 45.1774 380.28 44.3293 381.572 43.9454C382.105 43.7868 382.617 43.7773 383.107 43.917C383.603 44.0446 383.914 44.319 384.039 44.7402C384.256 45.4704 383.706 46.0718 382.39 46.5445C381.286 46.9439 380.616 47.4997 380.379 48.2118C380.143 48.924 380.156 50.0306 380.419 51.5316C380.831 53.9151 381.087 55.4947 381.185 56.2703C381.283 57.046 381.178 57.8567 380.869 58.7025C380.557 59.5388 380.18 60.1552 379.737 60.5516ZM401.459 54.0957C400.926 53.9793 400.433 53.6417 399.982 53.0831C399.528 52.5151 399.232 52.0017 399.096 51.5431C399.015 51.2716 398.884 50.1086 398.701 48.054C398.528 45.9967 398.36 44.6965 398.199 44.1536C397.993 43.4609 397.687 42.9966 397.281 42.7608C396.872 42.5156 396.256 42.4846 395.434 42.6677C394.313 42.9398 393.673 42.8091 393.515 42.2755C393.359 41.7513 393.502 41.2554 393.944 40.7879C394.392 40.3083 394.916 39.9794 395.515 39.8014C396.498 39.5093 397.481 39.5787 398.465 40.0096C399.458 40.4377 400.187 41.4335 400.652 42.9967C400.805 43.5116 400.926 44.0918 401.016 44.7375L401.307 47.7226L401.727 51.0363C402.233 51.0591 402.866 51.3039 403.626 51.7707C404.384 52.2282 404.83 52.6863 404.967 53.145C405.106 53.613 404.757 54.3431 403.921 55.3353C403.495 55.8187 403.208 56.2604 403.062 56.6604C402.913 57.051 402.842 57.3777 402.849 57.6406C402.863 57.8913 402.962 58.3812 403.148 59.1104C403.706 61.3287 403.619 63.4686 402.886 65.5302C402.157 67.6011 401.067 68.8522 399.616 69.2834C398.717 69.5505 398.135 69.6117 397.867 69.4669C397.594 69.3343 397.412 69.1183 397.323 68.8187C397.148 68.229 397.175 67.7726 397.405 67.4495C397.645 67.1237 398.251 66.8161 399.225 66.5268C399.608 66.4127 399.928 66.0833 400.184 65.5387C400.452 65.0006 400.643 64.2715 400.757 63.3513C400.882 62.4378 400.907 61.748 400.829 61.282C400.758 60.8038 400.591 59.9826 400.326 58.8183C400.041 57.6194 400.419 56.0452 401.459 54.0957Z" fill="white"/>
<path d="M108.944 94.3766C109.012 93.9682 109.234 93.6368 109.609 93.3826C109.985 93.1206 110.378 93.0237 110.786 93.0918C111.141 93.1509 111.403 93.3096 111.574 93.5678C111.754 93.8195 111.819 94.0957 111.769 94.3962C111.7 94.8046 111.478 95.1398 111.102 95.4018C110.733 95.665 110.337 95.7613 109.913 95.6906C109.582 95.6353 109.322 95.4812 109.135 95.2281C108.955 94.9764 108.892 94.6925 108.944 94.3766ZM104.632 109.898C103.985 109.79 103.711 109.44 103.81 108.846L104.862 105.386C105.124 104.48 105.547 103.326 106.129 101.926C106.627 100.647 106.96 99.7681 107.127 99.289C107.394 98.5416 107.901 98.2302 108.649 98.3549C109.296 98.4628 109.57 98.8174 109.47 99.4184C109.436 99.6188 109.081 100.581 108.406 102.306C107.765 103.87 107.339 105.023 107.128 105.764C106.746 107.102 106.412 108.156 106.126 108.924C105.847 109.693 105.349 110.018 104.632 109.898ZM120.631 104.298C120.383 105.025 120.179 105.727 120.018 106.406L119.34 109.476C118.993 111.034 118.752 112.004 118.617 112.385C118.481 112.774 118.271 113.056 117.989 113.231C117.706 113.406 117.399 113.465 117.068 113.41C116.428 113.303 116.16 112.942 116.263 112.325C116.268 112.294 116.362 111.966 116.546 111.339C116.739 110.706 117.011 109.595 117.363 108.006C117.786 106.184 118.143 104.825 118.435 103.932C118.56 103.564 118.646 103.238 118.693 102.953C118.752 102.598 118.756 102.29 118.705 102.028C118.073 102.16 117.399 102.452 116.682 102.903L114.796 104.168L114.014 104.798C113.907 105.105 113.636 105.757 113.2 106.753C112.649 108.063 112.322 109.027 112.219 109.643C112.133 110.159 112.045 110.521 111.955 110.728C111.873 110.936 111.692 111.119 111.412 111.279C111.132 111.438 110.826 111.49 110.495 111.434C109.84 111.325 109.602 110.731 109.782 109.652C109.889 109.013 110.272 107.904 110.931 106.327C111.432 105.175 111.727 104.448 111.817 104.146C111.907 103.845 112.041 103.305 112.218 102.526C112.714 100.645 113.157 99.4632 113.546 98.9816C113.937 98.4923 114.336 98.2818 114.745 98.3499C115.022 98.3962 115.242 98.5478 115.405 98.8046C115.576 99.0628 115.638 99.3345 115.59 99.6196C115.566 99.766 115.405 100.159 115.108 100.799C115.049 100.915 115.009 101.012 114.989 101.088L114.621 102.297C115.275 101.559 116.104 100.929 117.11 100.408C118.116 99.8864 118.888 99.6708 119.428 99.7608C120.638 99.9626 121.269 100.686 121.323 101.93C122.544 100.977 123.901 100.626 125.396 100.875C126.96 101.136 127.593 102.164 127.293 103.96C127.05 105.416 126.71 107.193 126.273 109.29C125.734 111.909 125.435 113.273 125.377 113.382C125.26 113.608 125.064 113.789 124.787 113.925C124.518 114.071 124.236 114.119 123.944 114.07C123.312 113.964 123.052 113.573 123.165 112.895C123.37 111.669 123.626 110.488 123.935 109.352L124.698 105.772C124.801 105.298 124.831 104.737 124.789 104.088C124.748 103.432 124.577 103.079 124.276 103.029C124.03 102.988 123.465 103.123 122.581 103.435C121.697 103.747 121.047 104.035 120.631 104.298ZM130.425 114.177L128.599 119.563C128.346 120.321 127.85 120.638 127.11 120.515C126.771 120.458 126.528 120.303 126.38 120.048C126.239 119.803 126.223 119.515 126.334 119.185L129.387 110.214C129.797 108.991 130.235 107.48 130.701 105.681L131.301 103.369C131.418 102.905 131.664 102.471 132.041 102.067C132.426 101.656 132.842 101.487 133.289 101.562C133.875 101.66 134.117 102.009 134.017 102.61C133.968 102.903 133.802 103.307 133.518 103.822C135.127 103.148 136.506 102.907 137.654 103.098C139.982 103.486 140.902 105.137 140.416 108.05C140.013 110.469 139.101 112.305 137.68 113.557C136.261 114.802 134.649 115.273 132.846 114.973C132.068 114.843 131.261 114.578 130.425 114.177ZM132.88 106.436C132.581 107.566 132.04 109.357 131.259 111.809C131.944 112.264 132.721 112.564 133.592 112.709C134.756 112.903 135.725 112.574 136.501 111.721C137.278 110.861 137.804 109.61 138.078 107.968C138.339 106.404 137.949 105.535 136.909 105.362C136.369 105.272 135.821 105.279 135.265 105.385C134.709 105.49 133.914 105.84 132.88 106.436ZM141.202 111.887C141.543 109.845 142.513 108.11 144.114 106.682C145.715 105.247 147.53 104.698 149.556 105.036C150.712 105.229 151.527 105.78 152.001 106.691C152.483 107.603 152.611 108.729 152.388 110.07C152.021 112.266 151.085 114.082 149.578 115.518C148.071 116.954 146.405 117.519 144.579 117.215C143.322 117.005 142.391 116.394 141.783 115.382C141.176 114.37 140.982 113.205 141.202 111.887ZM148.554 107.269C147.352 107.068 146.266 107.501 145.296 108.567C144.328 109.625 143.743 110.759 143.541 111.969C143.407 112.77 143.509 113.441 143.847 113.98C144.194 114.513 144.694 114.834 145.349 114.944C146.367 115.113 147.342 114.801 148.274 114.006C149.207 113.211 149.824 111.908 150.126 110.097C150.404 108.432 149.903 107.493 148.624 107.28L148.554 107.269ZM164.981 111.137C164.884 111.438 164.688 111.734 164.394 112.025C164.109 112.31 163.758 112.418 163.342 112.349C162.795 112.258 162.567 111.938 162.658 111.391L162.82 110.777C162.842 110.646 162.881 110.482 162.938 110.286L163.215 109.334C160.871 109.188 158.97 109.996 157.512 111.757L155.487 117.918C155.231 118.691 154.722 119.014 153.959 118.886C153.288 118.775 153.077 118.331 153.325 117.557L155.958 109.68C156.558 107.887 156.973 106.891 157.205 106.692C157.444 106.494 157.756 106.427 158.141 106.492C158.757 106.594 158.994 107.077 158.85 107.94C158.819 108.125 158.769 108.331 158.699 108.557C160.612 107.395 162.485 106.967 164.319 107.273C165.306 107.437 165.698 108.124 165.496 109.334C165.445 109.642 165.357 109.98 165.232 110.347L164.981 111.137ZM171.904 111.021C171.749 111.375 171.558 111.787 171.329 112.256C170.326 114.282 169.73 115.858 169.543 116.983C169.322 118.309 169.519 119.023 170.136 119.125C170.745 119.227 171.227 119.113 171.583 118.785C172.071 118.328 172.484 118.127 172.824 118.184C173.078 118.226 173.305 118.363 173.504 118.594C173.71 118.827 173.788 119.097 173.737 119.405C173.623 120.083 173.099 120.594 172.162 120.937C171.235 121.273 170.351 121.371 169.511 121.231C167.523 120.899 166.735 119.497 167.148 117.023C167.374 115.667 167.955 114.061 168.89 112.205C169.138 111.716 169.379 111.225 169.611 110.733C167.953 110.37 167.017 110.071 166.802 109.837C166.597 109.597 166.529 109.269 166.598 108.853C166.655 108.514 166.817 108.252 167.086 108.067C167.355 107.874 167.691 107.811 168.091 107.878L170.451 108.474C170.531 108.281 170.604 108.056 170.671 107.797C170.73 107.538 170.806 107.25 170.898 106.932L171.334 105.532C171.433 105.224 171.62 104.982 171.895 104.806C172.177 104.631 172.484 104.571 172.816 104.627C173.463 104.735 173.7 105.309 173.526 106.349C173.476 106.65 173.365 107.031 173.193 107.493L172.728 108.853C173.783 108.895 174.345 108.921 174.414 108.933C175.216 109.066 175.753 109.239 176.027 109.451C176.301 109.655 176.404 109.969 176.333 110.393C176.27 110.771 176.088 111.053 175.788 111.241C175.495 111.43 175.167 111.494 174.805 111.433L173.668 111.196C173.098 111.101 172.51 111.043 171.904 111.021ZM190.144 114.063C189.99 114.418 189.798 114.829 189.57 115.298C188.566 117.325 187.971 118.901 187.783 120.026C187.562 121.351 187.76 122.065 188.376 122.168C188.985 122.27 189.467 122.156 189.823 121.827C190.311 121.37 190.725 121.17 191.064 121.226C191.318 121.269 191.545 121.406 191.744 121.637C191.95 121.869 192.028 122.14 191.977 122.448C191.864 123.126 191.339 123.636 190.403 123.979C189.475 124.316 188.592 124.414 187.752 124.274C185.763 123.942 184.976 122.539 185.388 120.066C185.614 118.709 186.195 117.103 187.131 115.248C187.378 114.758 187.619 114.268 187.851 113.776C186.193 113.412 185.257 113.113 185.042 112.88C184.837 112.639 184.769 112.311 184.838 111.895C184.895 111.556 185.057 111.294 185.326 111.109C185.596 110.917 185.931 110.854 186.332 110.921L188.692 111.516C188.771 111.324 188.844 111.098 188.911 110.84C188.97 110.581 189.046 110.292 189.139 109.975L189.574 108.574C189.673 108.266 189.86 108.024 190.135 107.848C190.418 107.674 190.725 107.614 191.056 107.669C191.703 107.777 191.94 108.351 191.767 109.392C191.716 109.692 191.605 110.074 191.433 110.536L190.969 111.896C192.023 111.937 192.585 111.964 192.654 111.975C193.456 112.109 193.993 112.282 194.267 112.494C194.542 112.698 194.644 113.012 194.573 113.436C194.51 113.813 194.328 114.096 194.028 114.283C193.735 114.472 193.407 114.536 193.045 114.476L191.908 114.239C191.338 114.144 190.75 114.085 190.144 114.063ZM196.317 121.568C196.774 122.959 197.854 123.797 199.558 124.081C200.159 124.181 200.892 124.177 201.758 124.067C202.623 123.958 203.238 123.74 203.601 123.413C203.985 123.057 204.336 122.905 204.651 122.958C204.906 123.001 205.103 123.125 205.243 123.33C205.384 123.528 205.435 123.742 205.397 123.974C205.266 124.76 204.471 125.368 203.014 125.798C201.565 126.221 200.185 126.324 198.875 126.105C197.226 125.83 196.004 125.23 195.207 124.305C194.412 123.373 194.124 122.252 194.343 120.942C194.659 119.046 195.612 117.296 197.202 115.692C198.793 114.088 200.609 113.457 202.651 113.797C204.007 114.023 205.006 114.424 205.647 114.998C206.287 115.572 206.538 116.275 206.4 117.107C206.285 117.793 205.952 118.344 205.4 118.758C204.856 119.167 204.288 119.46 203.696 119.639C203.113 119.811 202.35 120.016 201.408 120.255L196.317 121.568ZM196.822 119.466L200.888 118.386C202.604 117.928 203.791 117.528 204.45 117.186C203.99 116.476 203.167 116.022 201.98 115.824C200.085 115.508 198.365 116.722 196.822 119.466ZM214.284 127.535C212.485 128.059 211.232 128.262 210.523 128.143C207.641 127.663 206.429 126.051 206.886 123.307C207.312 120.756 208.461 118.826 210.336 117.514C212.217 116.205 214.121 115.71 216.048 116.032C216.795 116.156 217.534 116.478 218.263 116.995C219.002 117.507 219.329 118.017 219.244 118.525C219.191 118.841 219.046 119.07 218.808 119.213C218.604 119.488 218.239 120.322 217.714 121.715C217.197 123.102 216.886 124.112 216.781 124.744C216.651 125.522 216.673 126.627 216.846 128.057L216.861 128.25C216.572 128.938 216.085 129.225 215.399 129.111C215.283 129.092 215.094 128.898 214.831 128.529C214.566 128.168 214.384 127.837 214.284 127.535ZM216.627 118.683C216.19 118.317 215.828 118.11 215.543 118.062C214.256 117.848 212.957 118.229 211.645 119.206C210.343 120.177 209.548 121.525 209.26 123.252C208.977 124.947 209.568 125.917 211.032 126.161C212.18 126.352 213.33 126.109 214.48 125.429C215.142 122.221 215.858 119.972 216.627 118.683ZM226.049 128.226L227.611 127.762C227.903 127.676 228.095 127.641 228.187 127.656C228.434 127.697 228.623 127.824 228.754 128.036C228.893 128.249 228.939 128.491 228.894 128.76C228.79 129.384 228.074 129.855 226.746 130.172C225.427 130.483 224.432 130.582 223.762 130.47C222.259 130.22 221.142 129.606 220.41 128.628C219.678 127.651 219.417 126.534 219.626 125.278C219.926 123.482 220.992 121.72 222.825 119.99C224.658 118.26 226.322 117.52 227.817 117.769C228.657 117.909 229.494 118.255 230.329 118.806C231.165 119.349 231.536 119.902 231.442 120.465C231.391 120.773 231.219 121.045 230.926 121.282C230.642 121.512 230.346 121.601 230.038 121.549C229.737 121.499 229.449 121.257 229.173 120.823C228.904 120.39 228.215 120.081 227.106 119.896C226.297 119.761 225.252 120.351 223.971 121.666C222.698 122.982 221.973 124.172 221.796 125.236C221.67 125.991 221.839 126.661 222.304 127.245C222.778 127.823 223.492 128.192 224.448 128.351C224.918 128.43 225.452 128.388 226.049 128.226ZM235.686 125.866C234.715 128.745 234.032 130.413 233.639 130.871C233.255 131.321 232.836 131.509 232.381 131.433C232.088 131.384 231.858 131.247 231.69 131.021C231.529 130.796 231.471 130.552 231.514 130.29C231.545 130.105 231.648 129.893 231.823 129.653C231.958 129.461 232.186 128.925 232.507 128.044L235.862 118.113L236.464 116.574C236.64 116.088 236.767 115.611 236.845 115.141C236.98 114.332 237.187 113.78 237.466 113.486C237.744 113.192 238.119 113.084 238.589 113.162C239.236 113.27 239.503 113.667 239.388 114.353C239.207 115.44 238.75 116.92 238.018 118.794C237.636 119.799 237.338 120.617 237.122 121.246L236.802 122.238C238.601 120.804 240.314 120.222 241.94 120.493C242.742 120.627 243.355 120.912 243.782 121.347C244.209 121.775 244.333 122.528 244.153 123.607C244.08 124.046 243.96 124.553 243.793 125.127L243.17 127.292L242.617 129.683C242.582 129.844 242.504 130.266 242.382 130.951C242.267 131.636 242.207 132.046 242.201 132.18C242.202 132.315 242.147 132.476 242.037 132.663C241.926 132.851 241.741 133.01 241.482 133.141C241.222 133.272 240.95 133.314 240.665 133.266C240.272 133.201 240.025 133.021 239.923 132.727C239.828 132.441 239.868 131.775 240.043 130.727C240.362 128.816 240.708 127.384 241.08 126.433C241.486 125.376 241.728 124.612 241.807 124.142C241.946 123.31 241.741 122.848 241.194 122.757C240.47 122.636 239.716 122.764 238.932 123.14C238.158 123.51 237.076 124.418 235.686 125.866ZM247.247 130.063C247.704 131.454 248.784 132.292 250.487 132.576C251.088 132.676 251.821 132.672 252.687 132.563C253.552 132.454 254.167 132.235 254.531 131.908C254.915 131.552 255.265 131.401 255.581 131.453C255.835 131.496 256.032 131.62 256.172 131.825C256.313 132.023 256.365 132.238 256.326 132.469C256.195 133.255 255.4 133.863 253.943 134.293C252.494 134.716 251.114 134.819 249.804 134.601C248.155 134.325 246.933 133.725 246.136 132.801C245.342 131.868 245.053 130.747 245.272 129.437C245.588 127.541 246.541 125.791 248.132 124.187C249.722 122.583 251.538 121.952 253.58 122.292C254.936 122.519 255.935 122.919 256.576 123.493C257.217 124.067 257.468 124.77 257.329 125.603C257.214 126.288 256.881 126.839 256.329 127.254C255.785 127.662 255.218 127.955 254.625 128.134C254.042 128.306 253.279 128.511 252.337 128.75L247.247 130.063ZM247.752 127.961L251.817 126.881C253.533 126.423 254.72 126.023 255.379 125.681C254.919 124.971 254.096 124.517 252.909 124.319C251.014 124.003 249.294 125.217 247.752 127.961ZM269.66 128.598C269.563 128.899 269.367 129.195 269.073 129.486C268.787 129.771 268.437 129.879 268.021 129.81C267.473 129.718 267.246 129.399 267.337 128.852L267.499 128.238C267.521 128.107 267.56 127.943 267.616 127.746L267.894 126.795C265.55 126.649 263.649 127.457 262.191 129.217L260.165 135.378C259.91 136.151 259.4 136.474 258.637 136.347C257.967 136.235 257.756 135.792 258.004 135.018L260.636 127.14C261.236 125.348 261.652 124.352 261.883 124.153C262.122 123.955 262.434 123.888 262.82 123.952C263.436 124.055 263.672 124.538 263.528 125.401C263.498 125.586 263.447 125.792 263.378 126.018C265.291 124.856 267.164 124.427 268.998 124.733C269.984 124.898 270.377 125.585 270.175 126.795C270.123 127.103 270.035 127.441 269.911 127.808L269.66 128.598ZM289.373 123.95C288.433 123.793 287.601 123.987 286.876 124.532C286.16 125.077 285.53 125.978 284.988 127.234L284.697 127.91C286.038 128.039 286.909 128.137 287.309 128.204C288.527 128.407 289.014 128.884 288.77 129.635C288.586 130.167 288.176 130.439 287.54 130.452C287.404 130.461 287.254 130.46 287.089 130.448C286.926 130.429 286.756 130.404 286.579 130.375C286.236 130.294 285.342 130.192 283.897 130.07L282.939 132.607C282.86 132.847 282.767 133.145 282.66 133.499C282.553 133.854 282.425 134.268 282.274 134.742C282.133 135.209 282.01 135.616 281.904 135.963C281.8 136.302 281.709 136.588 281.631 136.82C281.159 138.223 280.704 139.315 280.264 140.097C279.938 140.676 279.482 140.917 278.896 140.819C278.735 140.792 278.593 140.741 278.471 140.665C278.349 140.589 278.25 140.494 278.174 140.378C278.105 140.272 278.058 140.149 278.033 140.01C278.017 139.873 278.032 139.733 278.08 139.59C278.102 139.554 278.116 139.517 278.122 139.478C278.136 139.441 278.159 139.401 278.19 139.359C278.444 138.879 278.678 138.379 278.891 137.86C279.113 137.335 279.323 136.788 279.521 136.219L280.5 133.127L281.578 129.873C281.086 129.831 280.684 129.795 280.372 129.767C280.06 129.739 279.838 129.714 279.707 129.692C279.314 129.626 279.052 129.488 278.921 129.276C278.799 129.057 278.801 128.761 278.927 128.386C279.17 127.642 279.971 127.372 281.331 127.575L282.449 127.714C282.531 127.506 282.631 127.261 282.749 126.98C282.875 126.7 283.023 126.384 283.193 126.032C283.944 124.423 284.787 123.264 285.721 122.557C286.854 121.748 288.268 121.485 289.963 121.767C291.057 121.95 291.484 122.409 291.242 123.145C290.998 123.849 290.375 124.117 289.373 123.95ZM300.153 133.684C300.055 133.985 299.859 134.281 299.565 134.572C299.28 134.858 298.929 134.965 298.513 134.896C297.966 134.805 297.738 134.486 297.83 133.938L297.991 133.324C298.013 133.193 298.052 133.029 298.109 132.833L298.387 131.881C296.043 131.735 294.142 132.543 292.684 134.304L290.658 140.465C290.402 141.238 289.893 141.561 289.13 141.433C288.46 141.322 288.249 140.879 288.497 140.104L291.129 132.227C291.729 130.434 292.145 129.438 292.376 129.239C292.615 129.041 292.927 128.974 293.312 129.039C293.929 129.141 294.165 129.624 294.021 130.487C293.99 130.672 293.94 130.878 293.871 131.104C295.783 129.942 297.657 129.514 299.491 129.82C300.477 129.984 300.869 130.671 300.668 131.881C300.616 132.189 300.528 132.527 300.404 132.895L300.153 133.684ZM300.208 138.41C300.549 136.368 301.519 134.633 303.12 133.205C304.722 131.769 306.536 131.221 308.563 131.559C309.719 131.751 310.533 132.303 311.007 133.214C311.489 134.126 311.618 135.252 311.394 136.593C311.028 138.789 310.091 140.605 308.584 142.041C307.078 143.477 305.411 144.042 303.585 143.738C302.329 143.528 301.397 142.917 300.79 141.905C300.182 140.893 299.988 139.728 300.208 138.41ZM307.561 133.791C306.358 133.591 305.272 134.024 304.303 135.089C303.334 136.148 302.749 137.282 302.547 138.491C302.413 139.293 302.515 139.963 302.853 140.503C303.2 141.036 303.701 141.357 304.356 141.466C305.373 141.636 306.348 141.323 307.28 140.528C308.213 139.734 308.83 138.431 309.132 136.62C309.41 134.955 308.909 134.016 307.63 133.803L307.561 133.791ZM323.169 138.082C322.921 138.809 322.717 139.511 322.556 140.19L321.877 143.26C321.53 144.818 321.289 145.788 321.155 146.169C321.018 146.558 320.809 146.84 320.526 147.015C320.244 147.19 319.937 147.249 319.605 147.194C318.966 147.087 318.698 146.726 318.8 146.109C318.805 146.078 318.9 145.75 319.084 145.123C319.276 144.49 319.549 143.379 319.901 141.79C320.324 139.968 320.681 138.61 320.973 137.716C321.097 137.348 321.183 137.022 321.231 136.737C321.29 136.382 321.294 136.074 321.243 135.812C320.611 135.944 319.936 136.236 319.22 136.687L317.333 137.952L316.551 138.582C316.444 138.889 316.173 139.541 315.738 140.537C315.187 141.847 314.86 142.811 314.757 143.427C314.671 143.943 314.583 144.305 314.493 144.512C314.411 144.72 314.229 144.903 313.949 145.063C313.669 145.222 313.364 145.274 313.032 145.218C312.377 145.109 312.14 144.515 312.32 143.436C312.426 142.797 312.809 141.688 313.468 140.111C313.97 138.959 314.265 138.232 314.355 137.931C314.445 137.629 314.579 137.089 314.756 136.31C315.252 134.429 315.695 133.247 316.084 132.766C316.474 132.276 316.874 132.066 317.282 132.134C317.56 132.18 317.78 132.332 317.943 132.589C318.114 132.847 318.175 133.119 318.128 133.404C318.103 133.55 317.943 133.943 317.646 134.583C317.587 134.699 317.547 134.796 317.526 134.872L317.158 136.081C317.812 135.343 318.642 134.713 319.648 134.192C320.653 133.67 321.426 133.455 321.965 133.545C323.175 133.747 323.807 134.47 323.861 135.714C325.081 134.761 326.439 134.41 327.934 134.659C329.498 134.92 330.13 135.948 329.831 137.744C329.588 139.2 329.248 140.977 328.811 143.074C328.271 145.693 327.973 147.057 327.915 147.166C327.798 147.392 327.601 147.573 327.325 147.709C327.055 147.855 326.774 147.903 326.481 147.854C325.849 147.748 325.59 147.357 325.703 146.679C325.907 145.453 326.164 144.272 326.472 143.136L327.236 139.556C327.338 139.082 327.369 138.521 327.326 137.873C327.285 137.216 327.115 136.863 326.814 136.813C326.568 136.772 326.002 136.907 325.119 137.219C324.235 137.531 323.585 137.819 323.169 138.082ZM346.639 142.532L344.967 144.51L341.66 148.877C341.457 149.144 341.232 149.332 340.984 149.441C340.573 149.864 340.129 150.035 339.651 149.956C339.212 149.882 338.986 149.243 338.973 148.037C338.96 146.831 339.24 144.632 339.812 141.44L340.101 139.706C340.329 138.342 340.631 137.553 341.007 137.339C341.383 137.124 341.729 137.043 342.045 137.096C342.33 137.144 342.548 137.263 342.698 137.455C342.858 137.64 342.88 138.075 342.766 138.761C342.721 139.031 342.642 139.409 342.529 139.897L342.157 141.558L341.137 146.746C342.498 144.946 344.273 142.426 346.461 139.187C347.011 138.408 347.594 138.069 348.21 138.172C348.696 138.253 348.954 138.581 348.985 139.157C349.017 139.724 348.814 141.318 348.377 143.938C348.054 145.872 347.84 147.393 347.735 148.5L349.589 145.578L353.125 139.693C353.388 139.253 353.797 139.08 354.352 139.173C354.66 139.224 354.891 139.358 355.045 139.574C355.207 139.791 355.266 140.034 355.221 140.304C355.194 140.466 354.768 141.21 353.945 142.538C353.121 143.866 352.198 145.292 351.176 146.817C350.162 148.335 349.402 149.38 348.894 149.953C348.388 150.518 347.972 150.88 347.644 151.039C347.316 151.199 347.002 151.253 346.702 151.203C346.301 151.136 345.999 150.765 345.795 150.089C345.598 149.415 345.721 147.752 346.163 145.102L346.639 142.532ZM354.351 147.441C354.691 145.399 355.662 143.664 357.263 142.236C358.864 140.801 360.679 140.252 362.705 140.59C363.861 140.783 364.676 141.334 365.15 142.245C365.631 143.157 365.76 144.283 365.537 145.624C365.17 147.82 364.234 149.636 362.727 151.072C361.22 152.508 359.554 153.073 357.727 152.769C356.471 152.559 355.54 151.948 354.932 150.936C354.325 149.924 354.131 148.759 354.351 147.441ZM361.703 142.823C360.501 142.622 359.415 143.055 358.445 144.121C357.477 145.179 356.891 146.313 356.69 147.523C356.556 148.324 356.658 148.995 356.996 149.534C357.342 150.067 357.843 150.388 358.498 150.498C359.515 150.667 360.49 150.355 361.423 149.56C362.355 148.765 362.973 147.462 363.275 145.651C363.552 143.986 363.052 143.048 361.772 142.834L361.703 142.823ZM378.13 146.691C378.033 146.992 377.837 147.288 377.543 147.579C377.257 147.864 376.907 147.972 376.491 147.903C375.944 147.812 375.716 147.492 375.807 146.945L375.969 146.331C375.991 146.2 376.03 146.036 376.086 145.84L376.364 144.888C374.02 144.742 372.119 145.55 370.661 147.311L368.635 153.472C368.38 154.245 367.87 154.568 367.107 154.44C366.437 154.329 366.226 153.885 366.474 153.111L369.107 145.234C369.707 143.441 370.122 142.445 370.353 142.246C370.592 142.048 370.904 141.981 371.29 142.046C371.906 142.148 372.142 142.631 371.999 143.494C371.968 143.679 371.918 143.885 371.848 144.111C373.761 142.949 375.634 142.521 377.468 142.827C378.454 142.991 378.847 143.678 378.645 144.888C378.594 145.196 378.505 145.534 378.381 145.901L378.13 146.691ZM383.457 147.021L380.786 154.346C380.543 154.994 380.354 155.418 380.217 155.617C380.09 155.81 379.916 155.951 379.695 156.041C379.481 156.14 379.231 156.166 378.946 156.118C378.299 156.01 378.024 155.659 378.123 155.066C378.153 154.889 378.382 154.23 378.81 153.089L381.18 146.642L383.988 138.639C384.164 138.106 384.384 137.783 384.649 137.668C384.921 137.555 385.212 137.524 385.52 137.576C386.183 137.686 386.466 138.027 386.371 138.597C386.317 138.921 385.566 141.096 384.118 145.124C383.872 145.796 383.651 146.428 383.457 147.021ZM392.879 157.206C391.525 157.82 390.197 158.018 388.894 157.801C387.43 157.557 386.344 156.92 385.637 155.892C384.931 154.855 384.687 153.678 384.907 152.36C385.245 150.333 386.209 148.617 387.798 147.211C389.387 145.805 391.214 145.274 393.279 145.618C394.527 145.827 395.447 146.392 396.038 147.314C397.367 143.758 398.201 141.655 398.539 141.007C398.877 140.358 399.35 140.085 399.959 140.186C400.537 140.283 400.782 140.597 400.693 141.129C400.605 141.653 399.666 144.034 397.873 148.274C397.219 149.82 396.63 151.456 396.104 153.182C395.579 154.908 395.24 156.274 395.088 157.278L395.063 157.428C395.021 157.683 394.854 157.924 394.562 158.153C394.272 158.374 393.946 158.454 393.584 158.393C393.113 158.315 392.878 157.919 392.879 157.206ZM393.411 154.586L394.008 152.643L394.931 150.028C394.762 148.717 393.999 147.948 392.643 147.722C390.994 147.447 389.707 147.822 388.784 148.849C387.862 149.867 387.301 150.969 387.103 152.156C386.97 152.958 387.13 153.709 387.583 154.41C388.036 155.112 388.71 155.537 389.604 155.686C390.798 155.885 392.067 155.519 393.411 154.586ZM410.197 150.745C409.519 150.632 409.232 150.263 409.336 149.639C409.42 149.138 409.492 148.774 409.554 148.547C409.617 148.312 409.794 148.084 410.084 147.863C410.375 147.635 410.726 147.554 411.134 147.622C411.827 147.738 412.103 148.224 411.96 149.079C411.748 150.35 411.16 150.906 410.197 150.745ZM403.948 161.286C404.05 160.678 404.626 159.926 405.678 159.033C406.732 158.131 407.474 157.716 407.906 157.788C408.168 157.832 408.369 157.957 408.509 158.162C408.658 158.361 408.713 158.576 408.674 158.808C408.62 159.131 408.192 159.583 407.391 160.162C406.609 160.72 406.151 161.139 406.017 161.418C405.729 162.051 405.277 162.316 404.661 162.213C404.098 162.119 403.861 161.81 403.948 161.286Z" fill="white"/>
</g>
<g clip-path="url(#clip1_120_1154)">
<path d="M83.8207 547.928C105.795 549.787 127.784 551.562 149.787 553.101C149.171 512.581 148.667 469.933 149.427 442.609C141.567 445.421 129.219 424.165 122.3 424.35C111.077 424.653 100.399 426.329 90.7049 419.794C90.464 419.728 85.6095 428.788 85.5632 434.41C85.335 463.037 84.606 506.478 83.8207 547.928Z" fill="#03112D"/>
<path opacity="0.29" d="M86.7481 447.552C92.8951 448.352 99.0736 448.771 105.235 448.618C120.492 448.24 135.653 446.108 150.654 443.404C150.698 441.333 150.741 439.326 150.797 437.401C142.937 440.213 130.589 418.957 123.67 419.142C112.447 419.445 101.769 421.121 92.075 414.586C91.8341 414.52 86.9796 423.58 86.9333 429.203C86.8891 434.791 86.8274 440.953 86.7481 447.552Z" fill="#924199"/>
<path d="M177.234 219.752C178.284 218.226 189.642 210.532 194.899 198.646C200.156 186.759 191.516 165.992 166.76 154.596C142.008 143.2 124.268 155.353 113.41 159.938C106.124 163.016 104.617 171.415 104.617 171.415C104.617 171.415 94.9651 173.599 92.6853 183.209C88.4205 201.171 100.621 231.796 101.671 230.271C102.717 228.745 177.234 219.752 177.234 219.752Z" fill="#421614"/>
<path d="M165.324 302.642C160.373 294.396 152.604 286.496 140.299 281.444C137.196 280.171 133.171 285.579 134.213 291.757C136.358 304.433 138.955 378.694 141.234 379.883C156.405 387.783 169.793 382.487 178.234 377.795C191.715 370.302 170.849 311.846 165.324 302.642Z" fill="white"/>
<path d="M141.704 281.855C140.128 281.279 138.571 280.657 136.975 280.123C136.925 280.107 136.869 280.108 136.818 280.092C140.673 261.452 145.089 251.172 145.089 251.172L118.594 223.633C118.594 223.633 112.49 252.589 109.399 261.699C106.949 268.92 98.7283 280.376 98.7283 280.376C98.7283 280.376 98.8624 280.504 99.0578 280.683C98.4914 281.315 97.9501 282.098 97.4439 283.085C94.7077 288.43 100.166 294.967 102.51 299.492C104.907 304.124 106.771 310.063 111.265 313.056C113.925 314.826 116.95 315.816 120.026 316.1C120.039 316.113 120.042 316.131 120.054 316.148C123.865 321.342 130.729 315.949 134.156 313.111C134.988 312.423 135.354 311.616 135.411 310.817C135.758 310.477 136.101 310.137 136.424 309.765C138.293 307.628 139.281 305.759 139.662 304.078C142.007 301.028 144.178 297.857 146.248 294.594C144.368 290.487 142.784 286.265 141.704 281.855Z" fill="#EEB48A"/>
<path opacity="0.34" d="M129.297 285.071C134.579 287.893 140.06 290.765 145.61 293.194C144.014 289.521 142.659 285.764 141.705 281.855C140.128 281.279 138.572 280.657 136.976 280.123C136.925 280.107 136.869 280.108 136.818 280.092C140.673 261.452 145.09 251.172 145.09 251.172L118.594 223.633C118.594 223.633 114.108 244.914 110.88 256.726C111.054 268.957 118.658 279.39 129.297 285.071Z" fill="#924199"/>
<path d="M9.65294 541.123C32.3038 543.599 55.0375 545.482 77.7297 547.415C78.0374 547.442 78.3453 547.465 78.653 547.492C89.5009 501.247 101.24 451.396 109.002 422.871C100.821 424.538 90.9888 424.002 84.1115 423.202C72.9595 421.903 55.9256 435.168 47.26 427.321C47.0297 427.221 46.8128 427.114 46.587 427.01C45.1894 432.457 40.9339 416.081 40.0878 421.642" fill="#0D163F"/>
<path opacity="0.29" d="M43.3344 436.716C48.8229 438.962 54.4356 440.643 60.18 442.136C73.8765 445.7 88.1582 448.608 102.389 448.644C105.326 436.828 108.033 426.265 110.377 417.655C102.195 419.322 92.3635 418.786 85.4863 417.986C74.3342 416.687 57.3004 429.952 48.6347 422.105C48.4044 422.005 48.1875 421.898 47.9618 421.794C46.5642 427.241 42.3086 410.865 41.4626 416.426" fill="#924199"/>
<path d="M182.788 187.804C183.722 191.626 182.139 206.16 178.18 217.825C178.18 217.825 182.884 261.146 144.004 273.629C141.63 274.392 139.076 274.427 136.702 273.67C127.977 270.886 106.537 261.141 100.455 231.425C100.455 231.425 91.3597 230.719 91.332 219.046C91.3019 206.343 102.92 211.826 102.92 211.826C102.92 211.826 91.6223 163.41 132.522 166.125C173.421 168.841 180.065 176.665 182.788 187.804Z" fill="#EEB48A"/>
<path d="M41.5962 423.639C70.0268 444.506 151.241 439.455 151.616 436.931C158.12 393.481 158.315 336.576 157.407 327.457C157.407 327.457 158.511 287.358 138.819 280.758C136.357 292.178 133.228 299.564 121.966 299.59C110.588 299.614 105.567 285.824 104.058 272.057C94.8993 272.407 79.0332 270.628 73.8134 276.05C55.569 295.009 46.4258 337.059 58.6164 340.661C54.7729 353.196 40.6538 422.952 41.5962 423.639Z" fill="#00665D"/>
<path opacity="0.29" d="M46.4164 396.015C52.2585 399.166 58.5607 401.456 64.9663 403.169C72.2175 405.108 79.9624 407.412 87.1652 404.088C91.6593 402.014 96.2532 399.496 101.359 399.885C103.31 400.032 103.559 401.245 104.668 402.806C106.759 405.749 111.254 405.865 114.637 406.12C117.785 406.361 124.257 405.978 126.005 409.471C127.823 413.101 126.779 417.521 126.389 421.363C125.785 427.333 125.909 433.344 125.454 439.319C140.598 439.106 151.475 437.85 151.612 436.931C158.115 393.481 158.31 336.576 157.403 327.457C157.403 327.457 158.506 287.358 138.814 280.758C136.353 292.177 133.223 299.564 121.961 299.59C110.583 299.613 105.562 285.824 104.054 272.057C94.8945 272.407 79.0284 270.628 73.8086 276.05C55.5685 295.009 46.4253 337.059 58.6159 340.661C56.3709 347.98 50.6223 374.819 46.4164 396.015Z" fill="#924199"/>
<path d="M157.407 327.457C157.407 327.457 158.552 292.522 141.945 282.144C138.923 305.944 137 324.889 134.204 348.715C130.07 383.926 132.684 419.856 128.2 455.029C148.304 455.423 166.148 452.598 166.137 451.576C165.608 404.336 158.319 336.581 157.407 327.457Z" fill="white"/>
<path opacity="0.26" d="M62.0885 348.415C60.3504 354.094 58.571 360.458 56.8389 366.893C60.2585 366.683 55.6046 370.911 58.947 370.198C76.8693 366.369 75.1663 354.621 81.3502 336.465C87.0493 319.727 91.8563 292.329 69.5449 284.429C69.2252 284.315 71.8391 278.86 71.6132 278.688C70.1925 279.379 68.9761 280.173 68.0782 281.103C49.8295 300.061 49.8977 344.817 62.0885 348.415Z" fill="#924199"/>
<path d="M150.962 239.125C151.106 239.151 151.259 239.117 151.389 239.022C153.066 237.774 154.199 234.511 153.119 230.684C153.034 230.387 152.727 230.218 152.429 230.299C152.132 230.384 151.959 230.691 152.044 230.989C152.975 234.295 152.057 237.134 150.721 238.131C150.473 238.314 150.422 238.663 150.605 238.91C150.693 239.027 150.826 239.099 150.962 239.125Z" fill="#E98770"/>
<path d="M131.698 221.764C130.912 224.19 131.517 226.558 133.046 227.054C134.576 227.549 136.449 225.979 137.235 223.553C138.022 221.127 137.417 218.759 135.887 218.263C134.357 217.772 132.484 219.338 131.698 221.764Z" fill="#421614"/>
<path d="M138.359 210.455C138.359 210.455 131.008 204.259 128.323 213.239C128.323 213.239 131.611 208.302 138.359 210.455Z" fill="#7C3F22"/>
<path d="M171.685 229.148C170.835 231.716 168.908 233.386 167.384 232.878C165.859 232.374 165.313 229.881 166.167 227.317C167.022 224.754 168.944 223.079 170.469 223.587C171.99 224.091 172.535 226.584 171.685 229.148Z" fill="#431715"/>
<path d="M167.197 215.137C167.197 215.137 176.62 211.702 175.511 221.404C175.511 221.404 174.419 215.426 167.197 215.137Z" fill="#7C3F22"/>
<path opacity="0.39" d="M179.553 212.57C181.571 206.581 183.703 200.651 186.344 194.893C186.33 194.54 186.307 194.212 186.263 193.948C184.387 182.58 178.338 174.234 137.58 168.375C134.317 167.908 131.392 167.826 128.722 168.009C138.136 178.98 151.046 185.55 162.271 193.976C162.156 191.749 159.552 184.976 161.712 185.647C179.079 191.038 179.028 211.654 179.553 212.57Z" fill="#924199"/>
<path d="M110.255 217.498L98.2747 206.557L98.576 180.141L137.808 156.108L177.584 176.704C177.584 176.704 193.262 189.594 186.096 201.087C181.83 207.928 176.801 216.467 178.305 212.246C186.2 190.152 156.013 179.627 156.013 179.627L158.082 189.361C144.875 184.083 139.767 174.024 140.035 175.277C140.683 178.288 140.879 181.382 140.018 184.336C138.538 189.443 135.096 196.875 127.117 202.676C125.495 203.858 119.389 204.946 117.335 205.952C113.576 207.8 111.231 211.991 110.255 217.498Z" fill="#421614"/>
<path d="M177.344 182.598C180.438 183.807 183.309 185.431 185.984 187.37C186.703 187.49 187.374 187.694 188.011 187.964C187.505 186.525 186.819 185.144 186.054 183.853C185.867 183.537 185.657 183.241 185.457 182.932C185.605 182.967 185.745 183.001 185.893 183.032C184.224 179.93 181.612 177.282 178.635 175.647C178.417 175.479 178.199 175.316 177.973 175.156C177.798 174.776 178.105 174.245 178.595 174.455C182.763 176.222 186.976 178.747 189.871 182.322C189.005 179.363 187.839 176.467 186.449 173.73C184.633 170.147 182.449 166.314 179.006 164.058C178.452 163.694 171.128 156.607 166.756 154.591C142.004 143.195 124.264 155.348 113.406 159.933C107.411 162.467 105.333 168.589 104.781 170.686C104.789 170.703 104.797 170.713 104.804 170.73C104.995 171.485 104.046 175.545 104.031 176.3C105.907 174.884 109.756 172.969 112.549 171.965C107.621 179.312 99.3683 192.732 99.3683 192.732C105.739 191.028 111.427 187.39 116.701 183.212C117.175 182.837 117.748 183.442 117.436 183.922C116.455 185.434 115.48 186.943 114.499 188.455C118.1 187.302 121.8 186.426 124.886 184.125C125.309 183.807 125.846 184.23 125.684 184.719C124.05 189.666 121.587 194.176 118.567 198.387C128.264 196.167 136.549 190.212 140.643 180.934C140.792 180.6 141.146 180.574 141.391 180.713C141.721 178.367 141.501 175.966 140.993 173.617C140.725 172.364 145.829 182.423 159.04 187.701L156.971 177.967C156.971 177.967 187.154 188.492 179.264 210.586C177.972 214.197 182.698 209.067 185.18 202.453C187.743 195.621 184.474 188.554 176.844 183.483C176.352 183.161 176.811 182.39 177.344 182.598Z" fill="#7C2B2C"/>
<path d="M132.813 167.564C129.326 170.175 125.867 172.827 122.301 175.33C126.691 173.989 131.11 171.58 132.813 167.564Z" fill="#421614"/>
<path d="M154.162 163.057C161.27 165.808 168.751 167.349 174.682 172.3C170.769 166.16 161.45 163.023 154.162 163.057Z" fill="#421614"/>
<path d="M169.289 175.398C166.917 173.198 163.939 171.636 160.788 170.88C163.387 172.814 166.358 174.049 169.289 175.398Z" fill="#421614"/>
<path d="M135.048 244.909C135.048 244.909 149.336 243.867 156.168 250.556C156.168 250.556 154.466 259.917 142.857 257.634C134.722 256.036 135.048 244.909 135.048 244.909Z" fill="#731449"/>
<path d="M144.795 254.362C142.412 253.398 139.852 253.459 137.351 253.828C138.511 255.624 140.246 257.124 142.862 257.638C145.244 258.108 147.204 258.08 148.827 257.748C147.776 256.289 146.476 255.043 144.795 254.362Z" fill="#DF5651"/>
<path d="M152.425 247.912C147.891 245.583 142.265 244.986 138.663 244.873C140.511 249.14 151.828 251.058 152.425 247.912Z" fill="#F2ECE8"/>
<path d="M17.4704 434.318C27.5712 441.732 55.8519 450.815 75.5762 453.304C80.5933 429.839 84.3017 409.7 87.2226 391.438C94.495 391.669 100.613 391.239 104.354 390.262C106.176 373.904 106.747 364.135 106.747 364.135C106.747 364.135 99.7198 361.256 92.0382 358.046C95.868 328.468 98.3355 303.75 102.341 272.04C98.3392 272.215 93.3116 270.805 88.5937 271.53C82.3487 271.36 71.5004 275.22 58.2362 288.239C34.5482 311.486 16.3864 361.83 26.6133 372.288" fill="white"/>
<path opacity="0.29" d="M42.4673 384.904C45.4199 388.882 52.5385 389.813 56.8479 391.022C59.0278 391.634 61.2501 392.257 62.9647 393.82C64.1129 394.873 65.0389 396.118 66.1647 397.186C67.7658 398.708 69.4608 398.883 71.4151 399.533C74.452 400.541 76.2814 403.266 79.4089 404.124C80.9221 404.537 82.932 405.049 84.9194 405.22C85.7364 400.498 86.5023 395.911 87.2141 391.437C89.8856 391.52 92.3991 391.517 94.6986 391.428C94.7028 390.144 94.6281 388.959 94.4796 388.001C93.5132 381.717 85.784 380.509 80.5637 379.731C74.2958 378.799 68.0491 377.444 61.747 376.794C53.2715 375.924 45.4905 376.576 37.8218 380.215" fill="#924199"/>
<path opacity="0.29" d="M88.9181 357.063C92.7479 327.485 96.0427 303.44 100.044 271.729C98.9927 271.778 96.6601 271.56 95.4892 271.455C87.6789 276.164 80.5649 281.936 72.3624 285.951C76.3574 288.312 79.7515 291.523 83.8124 293.789C84.623 294.242 70.4605 304.27 69.1937 304.761C67.9752 305.233 80.0608 329.706 83.5732 346.651C85.5971 356.421 91.0668 365.617 93.0327 375.423C94.0076 380.282 94.3618 384.89 93.4955 389.788C93.4622 389.984 93.4164 390.174 93.3834 390.366C96.5526 390.174 99.2341 389.807 101.229 389.288C103.051 372.93 103.622 363.161 103.622 363.161C103.622 363.161 96.5954 360.274 88.9181 357.063Z" fill="#924199"/>
<path d="M92.0382 358.046C95.868 328.467 98.3355 303.75 102.341 272.039C101.29 272.088 100.164 272.02 98.9931 271.915C91.1827 276.624 83.7929 282.053 75.5947 286.068C79.5898 288.43 83.3037 291.251 87.3646 293.518C88.1751 293.97 73.5894 305.249 72.3226 305.739C71.1041 306.211 83.1897 330.684 86.7021 347.629C88.726 357.4 94.1957 366.596 96.1617 376.401C97.1365 381.261 97.4907 385.868 96.6244 390.767C96.5912 390.962 96.5453 391.153 96.5123 391.344C99.6816 391.153 102.363 390.786 104.358 390.266C106.18 373.909 106.751 364.14 106.751 364.14C106.751 364.14 99.7156 361.256 92.0382 358.046Z" fill="white"/>
<path opacity="0.29" d="M152.19 307.352C155.223 305.641 158.858 304.426 162.191 303.072C158.77 297.185 155.367 293.331 151.347 287.528C151.15 287.241 147.196 283.903 147.869 285.927C146.961 285.387 146.806 286.379 145.924 285.974C146.532 308.42 144.142 330.777 139.786 352.766C139.845 356.707 139.879 359.131 139.884 359.122C146.239 347.615 156.503 333.908 164.151 321.77C160.029 317.876 151.261 307.876 152.19 307.352Z" fill="#924199"/>
<path d="M148.6 307.531C151.633 305.82 155.268 304.605 158.602 303.251C155.18 297.364 151.872 291.927 147.77 286.072C147.572 285.785 147.649 285.429 147.722 285.15C145.93 284.085 144.018 283.089 141.973 282.172C141.972 282.18 141.972 282.189 141.971 282.197C140.987 299.765 141.675 317.313 140.261 334.876C139.718 341.602 139.189 348.329 138.676 355.056C138.677 355.052 138.681 355.048 138.681 355.044C145.037 343.536 152.904 334.091 160.556 321.953C156.443 318.056 147.671 308.059 148.6 307.531Z" fill="white"/>
<path d="M68.5057 384.986L122.604 402.812C123.712 403.18 124.908 402.577 125.276 401.466L149.445 328.189C149.813 327.082 149.21 325.886 148.098 325.518L93.9994 307.692C92.8916 307.325 91.6954 307.927 91.3278 309.039L67.1582 382.32C66.7951 383.428 67.3976 384.623 68.5057 384.986Z" fill="#644791"/>
<path opacity="0.49" d="M101.962 310.8C91.7402 339.649 85.632 358.188 75.4982 387.292L71.0076 385.811C68.5179 384.991 67.1629 382.308 67.9829 379.819L90.5021 311.544C91.3221 309.056 94.0071 307.701 96.4968 308.521L102.18 310.392C102.099 310.512 102.018 310.644 101.962 310.8Z" fill="#924199"/>
<path d="M133.178 342.148C132.701 342.077 129.299 335.706 129.299 335.706L122.488 338.795C122.488 338.795 127.255 323.706 129.061 319.25L139.698 322.754C137.506 329.909 135.374 335.702 133.178 342.148Z" fill="#F68A1E"/>
<path d="M112.714 375.47C112.714 375.47 102.234 375.642 95.7506 370.872C89.8055 366.503 82.9199 358.635 76.1662 358.065C71.4513 357.669 82.6476 371.436 82.6476 371.436C82.6476 371.436 60.2938 377.729 59.0416 379.474C57.7895 381.22 58.6923 386.847 61.6422 385.518C64.5878 384.188 59.6036 392.905 67.6139 390.656C67.6139 390.656 65.5832 398.912 74.866 396.649C74.866 396.649 74.5127 403.589 85.4768 400.444C96.4409 397.3 98.9814 397.277 102.361 396.806C105.74 396.34 118.867 397.941 118.867 397.941L119.056 374.967L112.714 375.47Z" fill="#EEB48A"/>
<path opacity="0.29" d="M63.4171 390.361C63.637 390.134 63.9661 390.02 64.3605 390.177C65.0443 390.45 65.7428 390.694 66.4466 390.921C66.8025 390.861 67.1814 390.776 67.6051 390.66C67.6051 390.66 67.5529 390.885 67.5013 391.242C72.9401 392.815 78.8278 393.212 84.4072 393.376C92.624 393.622 101.049 393.476 109.152 392.036C112.392 391.463 115.654 391.075 118.918 390.67L119.047 374.975L112.706 375.474C112.706 375.474 102.225 375.646 95.7418 370.876C89.7968 366.507 82.9111 358.638 76.1574 358.069C71.4425 357.673 82.6388 371.439 82.6388 371.439C82.6388 371.439 60.285 377.733 59.0328 379.478C57.7807 381.223 58.6835 386.851 61.6334 385.522C63.7311 384.574 61.82 388.702 63.4171 390.361Z" fill="#924199"/>
<path d="M106.496 373.64C106.496 373.64 141.694 368.803 141.692 368.76C158.543 362.951 173.045 352.844 177.639 352.193C185.316 364.107 185.176 382.486 176.792 390.741C158.989 408.283 119.623 405.51 106.255 400.398C106.084 383.616 106.496 373.64 106.496 373.64Z" fill="white"/>
<path opacity="0.29" d="M28.0805 367.61C45.4711 385.386 75.1705 388.814 89.0379 385.187C90.8603 368.83 101.419 364.351 101.419 364.351C101.419 364.351 82.3245 362.18 77.9108 352.214C66.0024 338.787 50.1698 341.445 45.6435 340.344" fill="#924199"/>
<path opacity="0.29" d="M135.596 393.027C139.706 392.974 139.702 387.683 138.373 386.496C137.941 386.109 144.191 382.913 139.679 378.579C139.029 377.956 142.926 376.606 143.152 373.137C143.213 372.192 142.647 371.312 141.771 370.95C136.464 368.754 130.391 367.8 130.391 367.8C130.391 367.8 132.905 365.641 136.604 365.864C139.956 366.066 144.083 363.794 139.851 360.808C132.618 355.705 123.042 360.56 116.3 364.431C108.944 368.656 99.4602 367.84 99.4602 367.84L92.8043 366.645L90.6114 390.371C90.6114 390.371 104.666 390.126 108.194 390.974C111.722 391.817 113.879 393.807 125.675 396.539C137.738 399.331 134.573 393.038 135.596 393.027Z" fill="#924199"/>
<path d="M134.971 390.207C139.081 390.154 139.077 384.863 137.748 383.676C137.316 383.289 143.566 380.092 139.054 375.759C138.404 375.136 142.301 373.786 142.527 370.317C142.588 369.372 142.022 368.492 141.146 368.13C135.839 365.934 129.766 364.98 129.766 364.98C129.766 364.98 132.28 362.821 135.979 363.044C139.331 363.246 143.458 360.974 139.226 357.988C131.993 352.885 122.417 357.74 115.675 361.611C108.319 365.836 98.8352 365.02 98.8352 365.02L92.1793 363.825L89.9864 387.55C89.9864 387.55 104.041 387.306 107.569 388.154C111.097 388.997 113.254 390.986 125.05 393.719C137.113 396.515 133.947 390.223 134.971 390.207Z" fill="#EEB48A"/>
<path d="M26.609 372.288C43.9997 390.064 90.4814 393.897 104.349 390.266C106.171 373.908 106.742 364.139 106.742 364.139C106.742 364.139 72.6637 349.386 72.6703 349.348C56.3937 341.97 38.0467 336.726 33.5204 335.625" fill="white"/>
<path d="M402.245 310.867C401.771 308.318 399.93 306.211 397.854 304.802C397.33 304.448 396.656 304.21 396.078 303.978C395.796 303.866 396.807 301.63 396.874 301.454C397.538 299.63 397.929 297.769 398.135 295.849C398.7 290.597 394.842 284.817 389.335 285.232C389.803 281.1 386.302 277.385 382.099 277.69C379.778 265.437 364.748 260.9 356.065 269.755C352.076 261.941 340.877 263.491 338.704 271.544C336.292 268.213 331.261 267.438 327.478 269.125C320.913 272.053 319.336 279.756 318.307 286.217C309.821 286.591 304.773 295.381 308.891 302.826C310.879 309.631 312.576 310.055 312.877 312.972C313.377 317.803 315.863 317.261 315.895 317.302C316.107 317.563 317.72 318.098 317.804 317.704C318.428 314.826 318.458 311.127 317.14 308.54C319.419 307.148 319.684 304.807 319.15 302.044C318.843 300.449 320.995 299.875 322.091 298.657C323.104 297.537 323.668 296.149 323.932 294.697C329.944 300.018 340.12 298.338 344.168 291.402C348.098 295.486 354.926 295.39 358.825 291.357C360.951 296.852 365.56 300.797 371.275 302.068C369.697 303.519 369.304 306.042 370.313 308.129C371.672 310.946 373.683 313.232 374.674 316.25C375.69 319.351 375.446 322.703 374.488 325.767C374.371 326.142 374.579 326.472 374.922 326.617C377.498 327.726 379.689 326.363 381.531 324.52C383.328 322.722 384.397 320.592 387.325 320.558C389.212 320.534 370.548 345.973 372.505 346.082C374.38 346.187 378.154 348.93 382.137 344.442C387.81 338.051 384.201 339.044 386.312 335.663C388.172 332.684 392.337 332.72 395.395 330.654C398.069 328.848 397.506 322.648 398.565 319.964C400.702 314.519 402.492 312.188 402.245 310.867Z" fill="#511113"/>
<path d="M317.563 318.712C317.563 318.712 313.907 310.707 311.307 318.069C309.086 324.355 313.837 331.425 317.797 331.659C321.761 331.893 317.563 318.712 317.563 318.712Z" fill="#E09F73"/>
<path d="M372.12 455.95C358.698 455.404 345.282 454.163 331.933 452.393C325.093 475.104 321.12 532.318 321.12 532.318L364.33 533.056C366.079 507.277 368.782 481.573 372.12 455.95Z" fill="#371201"/>
<path d="M374.163 535.271L415.413 524.035C415.413 524.035 404.361 473.615 391.846 449.142C385.564 451.65 379.174 453.893 372.685 455.842C368.087 457.223 363.446 458.447 358.778 459.561C362.118 485.161 367.67 510.318 374.163 535.271Z" fill="#4F1E02"/>
<path d="M231.37 372.5C230.863 371.577 232.299 370.345 233.469 370.463C240.072 371.109 246.887 370.596 253.181 368.669C252.033 368.033 245.474 368.227 244.7 367.381C243.39 365.95 241.453 364.086 244.349 362.86C248.277 361.199 257.657 361.897 261.128 363.617C266.822 366.442 272.506 369.292 278.186 372.15C278.828 372.472 279.137 372.967 279.213 373.491C282.455 376.877 284.182 381.378 284.108 386.092C286.068 386.94 286.102 386.526 283.683 386.234C271.357 384.741 260.151 389.833 248.053 387.044C241.439 385.512 237.526 383.649 231.37 372.5Z" fill="#FFD1BE"/>
<path d="M355.405 360.666C344.663 363.39 323.358 368.261 309.147 368.599C295.018 368.933 282.549 367.68 268.753 363.913C268.165 371.529 267.578 379.15 266.99 386.767C299.037 392.096 372.388 397.203 372.445 397.327C372.766 398.055 366.326 374.007 363.457 363.572C360.563 363.334 357.784 362.316 355.405 360.666Z" fill="#85244E"/>
<path d="M355.405 360.666C344.663 363.39 323.358 368.261 309.147 368.599C295.018 368.933 282.549 367.68 268.753 363.913C268.165 371.529 267.578 379.15 266.99 386.767C299.037 392.096 372.388 397.203 372.445 397.327C372.766 398.055 366.326 374.007 363.457 363.572C360.563 363.334 357.784 362.316 355.405 360.666Z" fill="#781E49"/>
<path d="M360.831 359.661C358.147 351.783 361.608 323.836 361.608 323.836L338.669 341.349C338.016 350.065 338.067 358.845 339.043 367.539C339.556 372.087 340.517 377.169 341.81 382.601C343.515 383.537 345.224 384.477 346.983 385.304C347.434 385.525 347.894 385.72 348.35 385.928C348.565 385.996 348.868 386.1 349.28 386.245C350.206 386.507 351.135 386.774 352.076 386.976C352.308 386.982 352.608 386.995 353.019 387.016C353.543 387.013 354.069 386.989 354.595 386.956C354.559 386.92 354.896 386.815 355.616 386.631C355.681 386.609 355.734 386.591 355.791 386.569C356.435 386.217 357.064 385.842 357.68 385.446C358.212 385.1 358.728 384.736 359.241 384.363C362.049 381.818 364.639 379.05 367.008 376.093C367.695 375.232 368.375 374.363 369.046 373.484C369.14 373.353 369.248 373.204 369.374 373.032C369.539 372.801 369.695 372.566 369.854 372.339C368.149 368.698 364.427 370.218 360.831 359.661Z" fill="#E09F73"/>
<path opacity="0.29" d="M367.66 375.251C368.125 374.661 368.59 374.075 369.043 373.48C369.136 373.348 369.244 373.2 369.371 373.027C369.535 372.797 369.691 372.561 369.851 372.335C368.144 368.702 364.423 370.222 360.831 359.666C358.147 351.788 361.608 323.841 361.608 323.841L338.669 341.353C338.201 347.633 338.1 353.943 338.443 360.233C347.22 366.876 357.13 372.247 367.66 375.251Z" fill="#924199"/>
<path d="M338.87 364.63C339.349 364.461 338.469 367.083 339.77 369.442C340.448 370.668 340.943 372.153 344.509 372.729C349.372 373.511 359.336 362.435 362.147 360.625C362.353 360.496 364.476 360.259 364.717 360.252C380.496 359.776 405.615 449.284 405.615 449.284C405.615 449.284 406.167 458.459 399.243 460.863C379.353 467.756 338.502 473.941 326.28 467.507C320.921 464.685 319.751 415.101 324.093 391.011C327.041 374.644 334.625 366.135 338.87 364.63Z" fill="#761E48"/>
<path opacity="0.37" d="M405.615 449.284C405.615 449.284 394.246 408.769 382 382.397C380.929 396.27 387.746 409.709 387.751 423.682C387.756 437.079 380.113 447.285 368.35 453.005C357.082 458.484 344.752 462.616 332.427 464.897C330.454 465.263 327.893 465.774 325.156 466.125C325.506 466.82 325.881 467.289 326.277 467.502C338.499 473.936 379.354 467.752 399.239 460.859C406.167 458.459 405.615 449.284 405.615 449.284Z" fill="#924199"/>
<path d="M320.913 283.046C319.579 286.156 315.99 298.165 317.322 308.735C319.718 327.807 310.503 333.582 319.363 347.628C322.935 353.296 331.681 359.461 339.439 360.752C341.519 361.101 371.932 366.384 382.19 336.708C382.19 336.708 389.802 337.514 391.534 327.579C393.418 316.768 384.887 320.677 384.887 320.677C384.887 320.677 399.755 276.361 365.593 272.355C331.426 268.349 324.797 273.983 320.913 283.046Z" fill="#E09F73"/>
<path opacity="0.29" d="M323.128 300.505C323.414 300.097 323.891 299.954 324.364 300.086C330.54 301.844 337.775 302.971 342.388 297.426C342.791 296.94 343.313 296.838 343.871 297.129C347.632 299.099 351.177 299.364 354.968 297.269C355.524 296.959 356.434 297.319 356.501 298.001C357.054 303.874 366.522 303.74 369.064 308.835C371.735 314.196 379.146 317.193 379.923 322.994C384.158 320.294 381.143 320.787 385.562 318.391C388.043 309.282 395.076 275.809 365.593 272.351C331.431 268.345 324.802 273.979 320.918 283.042C319.718 285.842 316.693 295.854 317.072 305.538C319.589 305.187 321.76 302.454 323.128 300.505Z" fill="#924199"/>
<path d="M335.738 333.151C335.615 333.135 335.498 333.072 335.419 332.965C334.366 331.544 334.254 328.626 336.065 325.798C336.207 325.579 336.499 325.515 336.718 325.657C336.937 325.799 337.001 326.091 336.859 326.31C335.294 328.753 335.34 331.277 336.178 332.409C336.333 332.62 336.29 332.914 336.078 333.069C335.976 333.136 335.854 333.163 335.738 333.151Z" fill="#E98770"/>
<path d="M355.577 323.963C355.29 326.23 353.964 327.928 352.616 327.756C351.269 327.585 350.413 325.61 350.7 323.343C350.986 321.076 352.313 319.378 353.66 319.549C355.008 319.72 355.868 321.696 355.577 323.963Z" fill="#580E0D"/>
<path d="M349.71 312.377C349.71 312.377 354.985 305.751 358.466 313.23C358.466 313.226 355.04 309.404 349.71 312.377Z" fill="#580E0D"/>
<path d="M321.452 319.628C321.165 321.896 322.021 323.871 323.368 324.042C324.716 324.213 326.038 322.515 326.329 320.248C326.62 317.981 325.76 316.006 324.412 315.835C323.065 315.663 321.738 317.361 321.452 319.628Z" fill="#580E0D"/>
<path d="M329.919 310.142C329.919 310.142 326.471 302.407 321.229 308.777C321.229 308.777 325.503 305.93 329.919 310.142Z" fill="#580E0D"/>
<path d="M325.332 337.321C326.36 337.452 347.335 340.638 347.335 340.638C347.335 340.638 345.385 347.408 335.634 346.169C325.883 344.933 325.332 337.321 325.332 337.321Z" fill="white"/>
<path d="M325.332 337.321C326.36 337.452 347.335 340.638 347.335 340.638C347.335 340.638 344.798 348.524 334.551 347.039C324.824 345.625 325.332 337.321 325.332 337.321Z" fill="#A13022"/>
<mask id="mask0_120_1154" style="mask-type:luminance" maskUnits="userSpaceOnUse" x="334" y="327" width="11" height="23">
<path d="M334.219 349.007C334.417 347.991 338.987 327.283 338.987 327.283C338.987 327.283 346.69 330.335 344.53 340.456C342.474 350.064 334.219 349.007 334.219 349.007Z" fill="white"/>
</mask>
<g mask="url(#mask0_120_1154)">
<path d="M346.925 339.814C347.141 338.114 342.435 336.115 336.413 335.351C330.391 334.586 325.334 335.344 325.118 337.045C324.902 338.745 329.608 340.743 335.63 341.508C341.652 342.273 346.709 341.514 346.925 339.814Z" fill="white"/>
</g>
<path d="M249.695 330.363C249.695 330.363 253.128 321.003 261.853 317.655L267.526 323.334C267.526 323.334 262.77 331.189 253.889 331.337L259.592 325.313C259.597 325.313 252.703 327.715 249.695 330.363Z" fill="#FFCF00"/>
<path d="M248.586 328.081C248.586 328.081 244.578 314.082 231.856 310.602L224.69 319.373C224.69 319.373 232.47 329.739 244.961 328.7L236.108 321.044C236.104 321.039 243.994 324.786 248.586 328.081Z" fill="#FFCF00"/>
<path d="M251.84 329.398C251.905 331.403 257.52 312.195 248.839 304.325L239.127 306.149C239.127 306.149 237.959 324.616 249.287 330.21L243.653 313.756C243.653 313.756 251.424 316.199 251.84 329.398Z" fill="#FFCF00"/>
<path d="M222.818 389.505L216.561 337.734L282.621 341.913L271.151 392.144L222.818 389.505Z" fill="#DD3F26"/>
<path opacity="0.18" d="M222.818 389.505L216.561 337.734L282.621 341.913L271.151 392.144L222.818 389.505Z" fill="#924199"/>
<path opacity="0.18" d="M280.498 341.776C279.197 350.187 277.441 358.88 273.229 366.329C268.334 374.992 260.625 379.586 251.055 381.9C241.713 384.154 231.88 384.563 222.259 384.881L222.819 389.501L271.151 392.144L282.621 341.908L280.498 341.776Z" fill="#924199"/>
<path opacity="0.33" d="M281.641 346.203L282.621 341.913L216.561 337.734L217.117 342.332C223.176 342.744 273.106 346.102 281.641 346.203Z" fill="#973F92"/>
<path d="M213.131 327.922L212.471 338.308L286.37 344.234L287.757 328.893L213.131 327.922Z" fill="#DD3F26"/>
<path opacity="0.18" d="M285.563 328.864C276.822 341.186 257.995 339.348 244.815 338.55C234.118 337.902 223.277 338.284 212.478 338.188L212.471 338.308L286.369 344.234L287.757 328.889L285.563 328.864Z" fill="#924199"/>
<path d="M250.205 385.112C250.633 375 251.19 364.891 252.034 354.804C252.446 349.891 252.875 344.974 253.201 340.051L242.912 339.402C242.122 356.444 242.084 373.506 242.242 390.567L249.976 390.99C250.051 389.027 250.121 387.069 250.205 385.112Z" fill="#FFCF00"/>
<path d="M253.702 328.449L243.537 328.318C243.262 332.458 243.038 336.601 242.853 340.747L253.097 341.569C253.403 337.199 253.632 332.829 253.702 328.449Z" fill="#FFCF00"/>
<path d="M235.02 379.303C234.637 378.322 236.224 377.288 237.372 377.559C243.833 379.073 250.657 379.467 257.149 378.385C256.096 377.604 249.568 376.928 248.912 375.987C247.805 374.396 246.131 372.29 249.163 371.459C253.278 370.328 262.484 372.261 265.692 374.425C270.964 377.98 276.223 381.551 281.472 385.135C282.066 385.54 282.309 386.07 282.311 386.602C285.078 390.385 286.196 395.076 285.499 399.741C287.327 400.843 287.416 400.436 285.055 399.826C273.037 396.715 261.253 400.282 249.632 395.915C243.276 393.528 239.642 391.166 235.02 379.303Z" fill="#E09F73"/>
<path d="M367.457 361.134C367.471 361.25 367.494 361.368 367.508 361.489C367.424 361.471 364.344 360.384 364.234 360.424C347.819 366.624 334.9 376.689 315.623 378.62C301.23 380.059 286.126 377.759 270.49 376.075C270.468 383.717 270.451 391.359 270.429 398.997C303.196 409.78 348.645 411.142 363.807 405.7C368.124 404.152 377.987 394.165 377.78 384.831C377.509 372.56 367.41 360.77 367.457 361.134Z" fill="#9E3566"/>
<path d="M402.245 310.867C401.772 308.318 399.931 306.211 397.855 304.802C397.33 304.448 396.657 304.21 396.078 303.978C395.797 303.866 396.808 301.63 396.875 301.454C397.539 299.63 397.93 297.769 398.136 295.849C398.701 290.597 394.843 284.817 389.336 285.232C389.804 281.1 386.303 277.385 382.1 277.69C379.779 265.437 364.749 260.9 356.066 269.755C352.077 261.94 340.878 263.491 338.705 271.544C336.293 268.213 331.262 267.438 327.478 269.125C320.914 272.053 319.337 279.756 318.308 286.217C310.598 286.556 305.751 293.843 308.011 300.755C309.781 301.827 311.036 303.676 310.904 306.086C310.929 306.092 310.946 306.097 310.972 306.103C312.214 306.379 313.447 306.518 314.694 306.576C315.064 304.146 316.843 302.128 319.163 301.417C319.446 300.279 321.152 299.704 322.091 298.665C323.104 297.545 323.669 296.158 323.932 294.705C329.944 300.027 340.12 298.346 344.168 291.41C348.098 295.494 354.926 295.399 358.825 291.365C360.952 296.861 365.56 300.805 371.275 302.077C369.697 303.528 369.304 306.05 370.313 308.138C371.673 310.955 373.683 313.24 374.674 316.258C375.691 319.359 375.446 322.711 374.488 325.775C374.371 326.15 374.579 326.481 374.922 326.626C377.498 327.734 379.689 326.372 381.532 324.529C383.328 322.731 384.397 320.601 387.325 320.567C389.213 320.543 391.158 321.772 393.115 321.881C399.028 322.207 403.254 316.304 402.245 310.867Z" fill="#511113"/>
<path d="M370.308 308.137C370.969 309.508 371.783 310.751 372.558 312.013C374.431 312.516 377.63 311.751 378.691 311.407C382.345 310.228 385.351 307.811 385.189 303.722C385.122 302.052 387.292 300.55 388.856 301.263C394.326 303.743 396.472 299.849 397.291 300.165C397.707 298.756 397.974 297.32 398.131 295.848C398.696 290.597 394.838 284.817 389.331 285.232C389.799 281.099 386.298 277.385 382.095 277.69C379.774 265.437 364.744 260.9 356.061 269.755C352.072 261.94 340.873 263.49 338.7 271.544C336.288 268.213 331.257 267.437 327.473 269.125C320.909 272.053 319.332 279.756 318.303 286.217C310.593 286.555 305.746 293.842 308.007 300.754C308.923 301.308 309.693 302.075 310.212 303.013C312.158 303.727 314.126 303.867 316.063 303.519C316.861 302.541 317.929 301.79 319.158 301.413C319.442 300.275 321.148 299.699 322.087 298.661C323.099 297.541 323.664 296.153 323.927 294.701C329.94 300.022 340.115 298.342 344.163 291.406C348.093 295.49 354.921 295.394 358.82 291.361C360.947 296.856 365.556 300.801 371.27 302.072C369.692 303.523 369.3 306.046 370.308 308.137Z" fill="#8C191B"/>
<path d="M300.799 443.747C298.557 430.327 288.731 418.91 277.792 410.145C270.96 404.671 259.297 396.806 249.754 398.83C248.849 397.801 250.311 399.632 249.172 400.993C240.505 411.374 232.997 423.258 232.989 435.947C232.985 440.017 225.667 442.26 225.434 444.277C225.256 445.8 229.892 448.861 229.834 450.33C229.751 452.485 229.756 454.551 229.843 456.523C234.138 457.825 238.964 457.089 238.964 457.089C238.964 457.089 239.161 461.322 230.557 463.501C231.136 466.945 232.032 469.979 233.223 472.528C234.24 474.698 243.908 478.586 250.833 477.822C255.223 477.335 252.004 486.124 251.394 491.197C251.419 491.207 266.654 489.986 274.652 494.435C280.321 475.9 302.846 455.992 300.799 443.747Z" fill="#EEB48A"/>
<path opacity="0.34" d="M259.92 472.881C255.512 474.179 242.369 474.968 237.909 475.558C241.577 477.067 246.699 478.273 250.838 477.814C255.228 477.327 252.009 486.116 251.403 491.189C251.428 491.199 266.663 489.978 274.661 494.427C280.144 476.491 301.425 457.264 300.925 444.944C285.59 455.821 277.975 467.566 259.92 472.881Z" fill="#924199"/>
<path d="M230.194 460.915C230.092 459.462 229.976 457.755 229.854 456.7C229.922 458.155 230.034 459.562 230.194 460.915Z" fill="#FFD1BE"/>
<path d="M229.831 456.518C229.836 456.574 229.845 456.639 229.85 456.7C229.85 456.64 229.845 456.579 229.844 456.523C229.84 456.518 229.835 456.518 229.831 456.518Z" fill="#B22A2A"/>
<mask id="mask1_120_1154" style="mask-type:luminance" maskUnits="userSpaceOnUse" x="229" y="456" width="12" height="8">
<path d="M229.736 456.237C230.814 456.534 240.365 457.088 240.365 457.088C240.375 456.865 235.96 462.405 230.412 463.565C230.038 463.641 229.736 456.237 229.736 456.237Z" fill="white"/>
</mask>
<g mask="url(#mask1_120_1154)">
<path d="M229.171 452.996C229.273 454.724 229.441 456.434 229.682 458.136C229.811 459.063 230.579 459.788 231.511 459.861C234.688 460.117 238.484 458.151 238.769 457.056C239.082 455.855 234.11 454.727 229.171 452.996Z" fill="white"/>
</g>
<path opacity="0.51" d="M295.919 458.658C286.743 456.144 277.775 452.963 269.627 448.217C254.984 439.688 246.291 426.515 242.578 410.404C244.488 407.144 246.671 403.995 249.176 400.994C250.311 399.632 248.853 397.801 249.757 398.83C259.301 396.802 270.964 404.667 277.796 410.145C288.735 418.91 298.561 430.327 300.803 443.748C301.5 447.942 299.316 453.032 295.919 458.658Z" fill="#9C9C9C"/>
<path d="M245.816 386.51C246.052 384.883 247.181 390.383 254.469 391.299C253.563 383.786 257.407 378.813 258.441 380.331C265.631 390.854 274.15 387.859 287.221 392.832C297.868 396.883 310.997 406.162 317.309 421.408C328.949 449.512 285.511 476.972 285.511 476.972C286.731 478.905 276.639 472.479 274.45 467.809C270.44 459.263 270.907 452.867 270.326 443.545C251.821 433.065 242.312 410.607 245.816 386.51Z" fill="#0D1127"/>
<path d="M261.003 432.759C259.818 428.695 259.015 424.533 258.161 420.385C257.935 419.289 259.567 418.864 260.006 419.848C264.613 430.186 277.333 431.261 286.784 435.265C286.17 432.699 284.879 430.525 283.029 428.49C282.385 427.782 283.29 426.578 284.15 426.995C292.526 431.016 299.886 436.869 303.497 445.391C304.214 441.832 304.629 438.142 303.833 434.603C302.822 430.124 300.479 426.161 298.131 422.263C297.569 421.332 298.501 420.271 299.473 420.888C303.548 423.486 306.55 427.222 309.661 430.849C310.564 422.908 309.558 415.226 305.743 408.019C304.466 405.601 303.038 403.274 301.552 400.982C296.809 397.265 291.791 394.563 287.23 392.824C274.16 387.851 265.636 390.846 258.45 380.323C257.416 378.805 253.572 383.778 254.478 391.291C247.191 390.375 246.061 384.875 245.826 386.502C243.699 401.128 246.374 415.145 252.94 426.254C255.361 428.654 258.08 430.797 261.003 432.759Z" fill="#1D265B"/>
<path d="M262.101 453.054C263.679 453.111 265.185 452.931 266.606 452.51C266.363 451.915 266.319 451.209 266.565 450.489C266.925 449.429 267.377 448.417 267.866 447.429C265.569 448.553 262.624 445.795 264.76 443.849C266.888 441.908 269.415 440.256 272.416 440.428C275.13 440.583 277.812 442.789 277.927 445.655C278.009 447.721 277.464 449.556 276.505 451.143C274.928 455.012 270.499 456.72 267.786 459.601C266.079 461.418 263.433 459.837 263.413 457.96C263.086 457.97 262.759 457.976 262.441 457.966C259.308 457.854 258.925 452.936 262.101 453.054Z" fill="#EEB48A"/>
<path d="M241.138 434.69C240.117 437.016 238.202 438.42 236.859 437.829C235.52 437.237 235.258 434.877 236.278 432.551C237.299 430.225 239.214 428.82 240.557 429.412C241.897 430.003 242.158 432.368 241.138 434.69Z" fill="#580E0D"/>
<path d="M240.453 424.502C240.453 424.502 248.482 423.654 247.026 431.351C247.026 431.356 246.44 426.241 240.453 424.502Z" fill="#7C3F22"/>
<path d="M178.906 379.888C175.737 377.649 170.761 377.251 168.867 377.085C167.217 375.883 163.024 372.745 159.114 372.252C153.997 371.604 145.845 372.939 142.754 384.522C139.964 394.977 147.639 408.077 155.241 408.324C160.873 413.184 175.98 408.872 181.642 399.526C187.92 389.169 183.052 382.813 178.906 379.888Z" fill="#F8313E"/>
<path opacity="0.38" d="M178.906 379.888C175.737 377.649 170.76 377.251 168.867 377.085C167.452 376.051 164.163 373.595 160.781 372.61C160.665 373.324 160.682 374.038 160.963 374.712C162.054 377.294 164.847 378.999 167.363 380.095C169.887 381.2 172.714 381.555 175.105 382.944C181.203 386.476 179.345 394.145 176.167 399.128C170.052 408.713 158.61 408.445 154.596 407.77C153.4 407.569 152.188 407.303 151.024 406.932C152.387 407.778 153.813 408.276 155.241 408.324C160.873 413.184 175.98 408.872 181.642 399.526C187.919 389.169 183.052 382.813 178.906 379.888Z" fill="#AD4799"/>
<path opacity="0.43" d="M144.192 386.678C142.281 395.379 148.877 401.637 150.369 403.256C149.637 401.777 144.105 396.116 147.903 385.347C150.773 377.211 157.261 377.898 155.199 374.833C154.281 373.455 147.174 373.122 144.192 386.678Z" fill="white"/>
<path d="M167.956 379.019C169.889 374.824 170.865 369.73 171.227 367.506C171.33 366.872 170.91 366.285 170.268 366.164C169.418 366.01 168.639 366.745 168.8 367.57C169.412 370.746 168.291 375.741 167.446 378.79C167.633 378.827 167.808 378.907 167.956 379.019Z" fill="#673915"/>
<path d="M163.308 375.583C163.308 375.583 166.46 381.887 173.918 379.674C173.918 379.678 168.891 380.393 163.308 375.583Z" fill="#83161A"/>
<path d="M177.956 424.153C177.771 424.232 174.52 414.44 173.058 409.465C171.878 405.448 167.393 395.869 163.181 393.97C160.078 392.573 160.657 397.086 164.177 403.052C164.809 404.121 164.199 406.823 164.533 408.2C158.377 404.622 151.629 398.256 147.286 392.537C146.517 391.525 144.483 391.286 144.121 392.368C143.596 393.947 146.192 397.285 145.863 398.622C145.68 399.375 143.754 394.261 143.158 394.594C141.784 395.37 139.612 396.682 143.028 401.311C142 400.193 140.684 399.014 140.251 399.641C138.415 402.291 140.53 404.059 142.071 407.578C142.63 408.857 138.876 401.628 138.367 407.742C138.176 410.045 144.482 418.278 145.153 418.902C154.247 427.411 158.627 430.367 163.199 435.219C162.282 436.092 174.384 472.499 203.48 496.939C207.312 500.159 216.742 474.4 220.08 470.475C197.949 453.435 182.141 432.791 177.956 424.153Z" fill="#EEB48A"/>
<path d="M277.296 494.109C272.901 490.542 243.265 485.77 217.696 468.536C215.82 478.222 202.141 492.144 199.558 497.717C209.85 508.53 216.249 510.126 222.941 517.872C220.985 522.233 208.101 589.246 209.115 586.971C235.266 598.52 261.169 605.709 288 595.344C290.331 594.445 290.731 505.013 277.296 494.109Z" fill="#FAA01C"/>
<path d="M224.275 472.651C222.067 471.363 219.864 469.993 217.696 468.532C215.82 478.218 202.141 492.14 199.558 497.712C202.387 500.682 204.918 502.956 207.248 504.857C214.654 495.233 221.311 484.345 224.275 472.651Z" fill="#E27508"/>
</g>
<defs>
<clipPath id="clip0_120_1154">
<rect width="465" height="331" fill="white"/>
</clipPath>
<clipPath id="clip1_120_1154">
<rect width="404" height="443" fill="white" transform="translate(33.6191 143) rotate(3.44493)"/>
</clipPath>
</defs>
</svg>
