<svg width="327" height="75" viewBox="0 0 327 75" fill="none" xmlns="http://www.w3.org/2000/svg">
<g clip-path="url(#clip0_118_22)">
<path d="M0 14.5995C0 14.5995 137.65 -19.5011 327 16.5269L308.473 41.8557L321.042 74.3628C321.042 74.3628 145.792 47.5163 13.7817 75.0153L21.2107 44.1776L0 14.5995Z" fill="#173857"/>
<path d="M93.6745 19.675V22.93H87.1995V44H83.2095V22.93H76.6995V19.675H93.6745ZM101.705 22.895V30.035H110.105V33.29H101.705V40.745H111.155V44H97.7153V19.64H111.155V22.895H101.705ZM130.735 39.03H120.55L118.8 44H114.635L123.35 19.64H127.97L136.685 44H132.485L130.735 39.03ZM129.615 35.775L125.66 24.47L121.67 35.775H129.615ZM139.144 31.785C139.144 29.405 139.692 27.27 140.789 25.38C141.909 23.49 143.414 22.02 145.304 20.97C147.217 19.8967 149.306 19.36 151.569 19.36C154.159 19.36 156.457 20.0017 158.464 21.285C160.494 22.545 161.964 24.3417 162.874 26.675H158.079C157.449 25.3917 156.574 24.435 155.454 23.805C154.334 23.175 153.039 22.86 151.569 22.86C149.959 22.86 148.524 23.2217 147.264 23.945C146.004 24.6683 145.012 25.7067 144.289 27.06C143.589 28.4133 143.239 29.9883 143.239 31.785C143.239 33.5817 143.589 35.1567 144.289 36.51C145.012 37.8633 146.004 38.9133 147.264 39.66C148.524 40.3833 149.959 40.745 151.569 40.745C153.039 40.745 154.334 40.43 155.454 39.8C156.574 39.17 157.449 38.2133 158.079 36.93H162.874C161.964 39.2633 160.494 41.06 158.464 42.32C156.457 43.58 154.159 44.21 151.569 44.21C149.282 44.21 147.194 43.685 145.304 42.635C143.414 41.5617 141.909 40.08 140.789 38.19C139.692 36.3 139.144 34.165 139.144 31.785ZM186.969 19.675V44H182.979V33.36H171.534V44H167.544V19.675H171.534V30.105H182.979V19.675H186.969ZM196.212 22.895V30.035H204.612V33.29H196.212V40.745H205.662V44H192.222V19.64H205.662V22.895H196.212ZM223.212 44L217.612 34.27H214.567V44H210.577V19.675H218.977C220.843 19.675 222.418 20.0017 223.702 20.655C225.008 21.3083 225.977 22.1833 226.607 23.28C227.26 24.3767 227.587 25.6017 227.587 26.955C227.587 28.5417 227.12 29.9883 226.187 31.295C225.277 32.5783 223.865 33.4533 221.952 33.92L227.972 44H223.212ZM214.567 31.085H218.977C220.47 31.085 221.59 30.7117 222.337 29.965C223.107 29.2183 223.492 28.215 223.492 26.955C223.492 25.695 223.118 24.715 222.372 24.015C221.625 23.2917 220.493 22.93 218.977 22.93H214.567V31.085ZM233.321 19.675H237.661L233.986 28.005H231.186L233.321 19.675ZM249.182 44.245C247.549 44.245 246.079 43.965 244.772 43.405C243.466 42.8217 242.439 42.005 241.692 40.955C240.946 39.905 240.572 38.68 240.572 37.28H244.842C244.936 38.33 245.344 39.1933 246.067 39.87C246.814 40.5467 247.852 40.885 249.182 40.885C250.559 40.885 251.632 40.5583 252.402 39.905C253.172 39.2283 253.557 38.365 253.557 37.315C253.557 36.4983 253.312 35.8333 252.822 35.32C252.356 34.8067 251.761 34.41 251.037 34.13C250.337 33.85 249.357 33.5467 248.097 33.22C246.511 32.8 245.216 32.38 244.212 31.96C243.232 31.5167 242.392 30.84 241.692 29.93C240.992 29.02 240.642 27.8067 240.642 26.29C240.642 24.89 240.992 23.665 241.692 22.615C242.392 21.565 243.372 20.76 244.632 20.2C245.892 19.64 247.351 19.36 249.007 19.36C251.364 19.36 253.289 19.955 254.782 21.145C256.299 22.3117 257.139 23.9217 257.302 25.975H252.892C252.822 25.0883 252.402 24.33 251.632 23.7C250.862 23.07 249.847 22.755 248.587 22.755C247.444 22.755 246.511 23.0467 245.787 23.63C245.064 24.2133 244.702 25.0533 244.702 26.15C244.702 26.8967 244.924 27.515 245.367 28.005C245.834 28.4717 246.417 28.845 247.117 29.125C247.817 29.405 248.774 29.7083 249.987 30.035C251.597 30.4783 252.904 30.9217 253.907 31.365C254.934 31.8083 255.797 32.4967 256.497 33.43C257.221 34.34 257.582 35.565 257.582 37.105C257.582 38.3417 257.244 39.5083 256.567 40.605C255.914 41.7017 254.946 42.5883 253.662 43.265C252.402 43.9183 250.909 44.245 249.182 44.245Z" fill="white"/>
</g>
<defs>
<clipPath id="clip0_118_22">
<rect width="327" height="75" fill="white"/>
</clipPath>
</defs>
</svg>
